<svg width="97" height="86" viewBox="0 0 97 86" fill="none" xmlns="http://www.w3.org/2000/svg">
<path fill-rule="evenodd" clip-rule="evenodd" d="M10.4517 67.8297C1.81993 60.2584 -0.538787 50.6802 0.511405 42.1234C1.6683 32.6841 7.06528 23.63 14.0909 18.9573C23.4809 12.7167 33.3426 10.1541 41.9013 8.89974C46.0696 8.33202 50.2669 7.909 54.4812 7.6319C56.75 7.46166 59.047 7.29142 61.2541 6.85238C65.9041 5.92502 70.4924 4.41974 74.272 2.02742C76.0017 0.929821 77.7539 -0.181219 80.0845 0.024861C80.9223 0.0992125 81.7284 0.323063 82.443 0.679812C83.1575 1.03656 83.7623 1.51705 84.2123 2.08566C102.184 24.7858 99.471 48.8837 84.4594 64.062C76.962 71.6376 66.432 76.924 54.1498 78.4876C43.4345 79.845 31.7251 78.3263 19.9259 73.3983C18.8892 75.9688 18.1191 78.603 17.6234 81.2741C17.4126 82.4504 16.6247 83.5117 15.433 84.2246C14.2413 84.9375 12.7434 85.2435 11.2689 85.0754C9.7943 84.9073 8.46385 84.2788 7.57021 83.3281C6.67656 82.3775 6.29292 81.1826 6.50368 80.0063C7.20006 76.1311 8.52544 72.005 10.4517 67.8297ZM43.9231 17.7119C47.8768 17.134 51.5889 16.8562 55.1944 16.574C58.1372 16.35 61.1024 16.117 63.9778 15.5436C68.8204 14.5971 73.4581 13.078 77.737 11.0367C89.9687 29.4809 86.5542 47.477 75.6423 58.5157C69.7567 64.4652 61.664 68.4613 52.392 69.6351C44.0635 70.6924 34.4208 69.5276 24.1435 65.0386C30.3885 54.8824 40.5984 45.1474 53.8915 39.8476C55.2246 39.3165 56.2385 38.3847 56.7104 37.2572C57.1822 36.1297 57.0733 34.8988 56.4075 33.8354C55.7417 32.772 54.5736 31.9631 53.1602 31.5867C51.7468 31.2103 50.2039 31.2973 48.8708 31.8284C34.2243 37.6703 23.0035 47.7727 15.7083 58.5471C12.1084 53.8431 11.0302 48.373 11.6929 42.9925C12.642 35.2511 17.0842 28.6341 21.2794 25.8386C28.7374 20.8793 36.5998 18.7871 43.9287 17.7119H43.9231Z" fill="#FF5A00"/>
</svg>
