<svg width="50" height="50" viewBox="0 0 50 50" fill="none" xmlns="http://www.w3.org/2000/svg">
<path d="M28.75 50C40.7775 48.1798 50 37.7439 50 25.1408C50 11.2555 38.8075 0 25 0C11.1925 0 0 11.2555 0 25.1408C0 37.7439 9.2225 48.1823 21.25 50V32.683H17.5C16.5054 32.683 15.5516 32.2857 14.8483 31.5785C14.1451 30.8713 13.75 29.9121 13.75 28.9119C13.75 27.9117 14.1451 26.9525 14.8483 26.2453C15.5516 25.5381 16.5054 25.1408 17.5 25.1408H21.25V20.1126C21.25 17.7789 22.1719 15.5408 23.8128 13.8906C25.4538 12.2404 27.6794 11.3134 30 11.3134H31.25C32.2446 11.3134 33.1984 11.7107 33.9016 12.4179C34.6049 13.1251 35 14.0843 35 15.0845C35 16.0846 34.6049 17.0438 33.9016 17.7511C33.1984 18.4583 32.2446 18.8556 31.25 18.8556H30C29.6685 18.8556 29.3505 18.988 29.1161 19.2238C28.8817 19.4595 28.75 19.7792 28.75 20.1126V25.1408H32.5C33.4946 25.1408 34.4484 25.5381 35.1516 26.2453C35.8549 26.9525 36.25 27.9117 36.25 28.9119C36.25 29.9121 35.8549 30.8713 35.1516 31.5785C34.4484 32.2857 33.4946 32.683 32.5 32.683H28.75V50Z" fill="white"/>
</svg>
