<svg width="50" height="50" viewBox="0 0 50 50" fill="none" xmlns="http://www.w3.org/2000/svg">
<path d="M27.57 0C30.3824 0.00749982 31.8098 0.0224995 33.0423 0.0574986L33.5272 0.0749981C34.0872 0.0949976 34.6397 0.119997 35.3071 0.149996C37.967 0.274993 39.7819 0.694983 41.3743 1.31247C43.0242 1.94745 44.4142 2.80743 45.8041 4.1949C47.0758 5.4442 48.0595 6.95601 48.6865 8.62479C49.3039 10.2173 49.7239 12.0322 49.8489 14.6946C49.8789 15.3596 49.9039 15.9121 49.9239 16.4746L49.9389 16.9596C49.9764 18.1896 49.9914 19.617 49.9964 22.4295L49.9989 24.2944V27.5693C50.005 29.3928 49.9858 31.2163 49.9414 33.0392L49.9264 33.5242C49.9064 34.0867 49.8814 34.6392 49.8514 35.3041C49.7264 37.9666 49.3014 39.779 48.6865 41.374C48.0595 43.0428 47.0758 44.5546 45.8041 45.8039C44.5548 47.0756 43.0431 48.0593 41.3743 48.6863C39.7819 49.3038 37.967 49.7238 35.3071 49.8488L33.5272 49.9238L33.0423 49.9388C31.8098 49.9738 30.3824 49.9913 27.57 49.9963L25.7051 49.9988H22.4328C20.6085 50.0052 18.7843 49.9861 16.9606 49.9413L16.4756 49.9263C15.8821 49.9038 15.2888 49.878 14.6957 49.8488C12.0358 49.7238 10.2209 49.3038 8.62599 48.6863C6.95815 48.059 5.44725 47.0753 4.19871 45.8039C2.92614 44.5548 1.9416 43.043 1.31386 41.374C0.696387 39.7815 0.276408 37.9666 0.151414 35.3041L0.0764181 33.5242L0.063919 33.0392C0.0178364 31.2163 -0.00299809 29.3928 0.00142192 27.5693V22.4295C-0.00549747 20.606 0.0128369 18.7825 0.0564193 16.9596L0.0739184 16.4746C0.0939174 15.9121 0.118916 15.3596 0.148915 14.6946C0.273908 12.0322 0.693887 10.2198 1.31136 8.62479C1.94056 6.95533 2.92683 5.44346 4.20121 4.1949C5.44903 2.9238 6.95904 1.94014 8.62599 1.31247C10.2209 0.694983 12.0333 0.274993 14.6957 0.149996C15.3606 0.119997 15.9156 0.0949976 16.4756 0.0749981L16.9606 0.0599984C18.7835 0.0155814 20.6069 -0.00358666 22.4303 0.00249976L27.57 0ZM25.0002 12.4997C21.6851 12.4997 18.5059 13.8166 16.1618 16.1608C13.8177 18.5049 12.5008 21.6843 12.5008 24.9994C12.5008 28.3145 13.8177 31.4939 16.1618 33.838C18.5059 36.1822 21.6851 37.4991 25.0002 37.4991C28.3152 37.4991 31.4945 36.1822 33.8385 33.838C36.1826 31.4939 37.4995 28.3145 37.4995 24.9994C37.4995 21.6843 36.1826 18.5049 33.8385 16.1608C31.4945 13.8166 28.3152 12.4997 25.0002 12.4997ZM25.0002 17.4996C25.985 17.4994 26.9603 17.6932 27.8702 18.07C28.7802 18.4467 29.607 18.999 30.3036 19.6953C31.0001 20.3916 31.5526 21.2183 31.9297 22.1282C32.3067 23.038 32.5009 24.0133 32.501 24.9981C32.5012 25.983 32.3074 26.9583 31.9306 27.8683C31.5539 28.7783 31.0016 29.6051 30.3053 30.3017C29.609 30.9982 28.7824 31.5508 27.8725 31.9278C26.9627 32.3049 25.9875 32.499 25.0027 32.4992C23.0136 32.4992 21.1061 31.7091 19.6996 30.3026C18.2932 28.8961 17.503 26.9885 17.503 24.9994C17.503 23.0103 18.2932 21.1027 19.6996 19.6962C21.1061 18.2897 23.0136 17.4996 25.0027 17.4996M38.127 8.74979C37.2982 8.74979 36.5034 9.07902 35.9174 9.66506C35.3314 10.2511 35.0022 11.0459 35.0022 11.8747C35.0022 12.7035 35.3314 13.4983 35.9174 14.0844C36.5034 14.6704 37.2982 14.9996 38.127 14.9996C38.9558 14.9996 39.7506 14.6704 40.3366 14.0844C40.9226 13.4983 41.2518 12.7035 41.2518 11.8747C41.2518 11.0459 40.9226 10.2511 40.3366 9.66506C39.7506 9.07902 38.9558 8.74979 38.127 8.74979Z" fill="white"/>
</svg>
