<svg width="97" height="86" viewBox="0 0 97 86" fill="none" xmlns="http://www.w3.org/2000/svg">
<path fill-rule="evenodd" clip-rule="evenodd" d="M10.1734 67.8296C1.54161 60.2584 -0.817107 50.6802 0.233085 42.1234C1.38998 32.6841 6.78696 23.63 13.8126 18.9573C23.2025 12.7167 33.0642 10.1541 41.623 8.89974C45.7913 8.33202 49.9885 7.909 54.2029 7.6319C56.4717 7.46166 58.7687 7.29142 60.9758 6.85238C65.6258 5.92502 70.2141 4.41974 73.9937 2.02742C75.7234 0.929821 77.4756 -0.181219 79.8062 0.024861C80.644 0.0992125 81.4501 0.323063 82.1647 0.679812C82.8792 1.03656 83.4839 1.51705 83.934 2.08566C101.905 24.7858 99.1926 48.8837 84.1811 64.062C76.6837 71.6376 66.1537 76.924 53.8715 78.4876C43.1562 79.845 31.4468 78.3263 19.6476 73.3983C18.6109 75.9688 17.8408 78.603 17.345 81.2741C17.1343 82.4504 16.3464 83.5117 15.1547 84.2246C13.963 84.9375 12.4651 85.2435 10.9905 85.0754C9.51598 84.9073 8.18553 84.2788 7.29189 83.3281C6.39824 82.3775 6.0146 81.1826 6.22536 80.0063C6.92174 76.1311 8.24712 72.005 10.1734 67.8296ZM43.6448 17.7119C47.5984 17.134 51.3106 16.8562 54.9161 16.574C57.8589 16.35 60.8241 16.117 63.6995 15.5436C68.542 14.5971 73.1798 13.078 77.4587 11.0367C89.6904 29.4809 86.2758 47.477 75.364 58.5157C69.4784 64.4652 61.3857 68.4613 52.1137 69.6351C43.7852 70.6924 34.1425 69.5276 23.8652 65.0386C30.1102 54.8824 40.3201 45.1474 53.6132 39.8476C54.9462 39.3165 55.9602 38.3847 56.4321 37.2572C56.9039 36.1297 56.7949 34.8988 56.1292 33.8354C55.4634 32.772 54.2953 31.9631 52.8819 31.5867C51.4685 31.2103 49.9255 31.2973 48.5925 31.8284C33.9459 37.6703 22.7252 47.7727 15.43 58.5471C11.8301 53.8431 10.7519 48.373 11.4145 42.9925C12.3636 35.2511 16.8059 28.6341 21.0011 25.8386C28.4591 20.8793 36.3215 18.7871 43.6504 17.7119H43.6448Z" fill="#FF5A00"/>
</svg>
