<svg width="101" height="93" viewBox="0 0 101 93" fill="none" xmlns="http://www.w3.org/2000/svg">
<path d="M76.6662 57.3753C75.0863 51.6346 71.6711 46.572 66.9445 42.9641C62.2179 39.3563 56.441 37.4025 50.4999 37.4025C44.5589 37.4025 38.782 39.3563 34.0554 42.9641C29.3288 46.572 25.9136 51.6346 24.3337 57.3753L20.5688 71.0557C19.8929 73.512 19.792 76.0916 20.2741 78.5933C20.7563 81.0951 21.8084 83.4515 23.3484 85.4787C24.8884 87.5058 26.8747 89.1491 29.1525 90.2803C31.4302 91.4114 33.9379 92 36.4798 92H64.5201C67.062 92 69.5697 91.4114 71.8474 90.2803C74.1252 89.1491 76.1115 87.5058 77.6515 85.4787C79.1915 83.4515 80.2436 81.0951 80.7258 78.5933C81.2079 76.0916 81.107 73.512 80.4311 71.0557L76.6662 57.3753ZM72.3991 81.4685C71.4791 82.6893 70.2881 83.6785 68.9206 84.3578C67.553 85.0371 66.0463 85.3878 64.5201 85.3821H36.4798C34.9546 85.3822 33.45 85.029 32.0833 84.3503C30.7167 83.6716 29.5248 82.6857 28.6008 81.4693C27.6768 80.253 27.0455 78.8392 26.7563 77.3381C26.467 75.837 26.5275 74.2892 26.9331 72.8154L30.698 59.1353C31.8936 54.7908 34.4782 50.9596 38.0551 48.2293C41.6321 45.499 46.0039 44.0204 50.4999 44.0204C54.9959 44.0204 59.3678 45.499 62.9448 48.2293C66.5217 50.9596 69.1063 54.7908 70.3019 59.1353L74.0668 72.8154C74.4782 74.2886 74.5416 75.8376 74.2522 77.3397C73.9627 78.8418 73.3283 80.2548 72.3991 81.4685ZM27.8256 42.0165C28.4 38.418 27.6383 34.5658 25.6799 31.1667C23.7216 27.7676 20.7737 25.1802 17.3783 23.8796C13.7422 22.4876 10.0334 22.7093 6.93166 24.5035C0.765445 28.0722 -0.857242 36.8676 3.31512 44.11C5.27287 47.5091 8.22094 50.0971 11.6163 51.3971C13.1203 51.9849 14.7191 52.2913 16.3333 52.3011C18.3444 52.3084 20.3215 51.7811 22.063 50.773C25.1629 48.9785 27.2096 45.8687 27.8256 42.0165ZM21.306 40.9704C21.011 42.817 20.1073 44.2628 18.7615 45.0417C17.4157 45.8205 15.7148 45.8817 13.9714 45.2148C11.9881 44.4556 10.234 42.888 9.03197 40.8011C6.72121 36.789 7.27043 31.9497 10.2327 30.2348C10.9775 29.8114 11.8208 29.5932 12.677 29.6024C13.4801 29.611 14.2749 29.7663 15.0224 30.0609C17.0057 30.8205 18.7598 32.3879 19.9619 34.4748C21.1639 36.5617 21.6411 38.8691 21.306 40.9704ZM28.5407 28.3065C30.8849 30.185 33.5619 31.1632 36.269 31.163C37.0799 31.1627 37.8884 31.0752 38.6806 30.9022C45.6383 29.3861 49.8569 21.5042 48.0846 13.3322C47.2531 9.49669 45.2316 6.13171 42.3927 3.85662C39.3526 1.42041 35.7515 0.498255 32.2528 1.26096C25.2954 2.77687 21.0768 10.6588 22.8489 18.8308C23.6805 22.6665 25.702 26.0314 28.5407 28.3065ZM33.6549 7.72786C33.9758 7.65859 34.3031 7.62393 34.6312 7.62446C35.8584 7.62446 37.1207 8.1057 38.2701 9.02683C39.9282 10.3556 41.1226 12.3842 41.633 14.7391C42.6151 19.2671 40.6208 23.7079 37.2783 24.4363C35.7596 24.7672 34.1206 24.3064 32.6636 23.1386C31.0054 21.8097 29.811 19.7811 29.3006 17.4263C28.3183 12.897 30.3126 8.45624 33.6549 7.72786ZM94.0682 24.5035C90.9677 22.7093 87.2571 22.4876 83.6215 23.8796C80.2262 25.1798 77.2781 27.7676 75.3204 31.1667C73.3626 34.5658 72.6007 38.4188 73.1747 42.0165C73.7899 45.8687 75.8362 48.9785 78.9373 50.773C80.6787 51.7814 82.6559 52.3087 84.667 52.3011C86.2812 52.2913 87.88 51.9849 89.384 51.3971C92.7794 50.0971 95.7274 47.5091 97.6852 44.11C101.857 36.8676 100.234 28.0722 94.0682 24.5035ZM91.9679 40.8011C90.7659 42.888 89.0118 44.4556 87.0285 45.2148C85.2859 45.8824 83.5846 45.8209 82.2388 45.0417C80.893 44.2624 79.99 42.817 79.6943 40.9704C79.3588 38.8691 79.8358 36.5625 81.038 34.4767C82.2403 32.3908 83.9942 30.8224 85.9775 30.0628C86.7249 29.7679 87.5197 29.6123 88.3229 29.6034C89.1791 29.5942 90.0224 29.8124 90.7672 30.2359C93.7295 31.9493 94.2793 36.788 91.9679 40.8011ZM62.3193 30.9022C63.1115 31.0752 63.92 31.1627 64.7309 31.163C67.4378 31.163 70.1158 30.185 72.4591 28.3065C75.2979 26.0316 77.3194 22.6665 78.151 18.831C79.9231 10.659 75.7045 2.77708 68.7471 1.26117C65.2486 0.498875 61.6473 1.42041 58.6072 3.85682C55.7683 6.13171 53.7468 9.4969 52.9153 13.3322C51.143 21.5042 55.3616 29.3861 62.3193 30.9022ZM59.3669 14.738C59.8773 12.3831 61.0717 10.3537 62.7298 9.02579C63.8794 8.10467 65.1415 7.62342 66.3687 7.62342C66.6968 7.62289 67.0241 7.65756 67.345 7.72683C70.6873 8.45521 72.6816 12.897 71.6997 17.4241C71.1889 19.779 69.9945 21.8084 68.3367 23.1365C66.8799 24.3042 65.242 24.7649 63.722 24.4343C60.379 23.7069 58.3848 19.2655 59.3669 14.738Z" fill="#FF5A00" stroke="#FF5A00" stroke-width="2"/>
</svg>
