<svg width="98" height="90" viewBox="0 0 98 90" fill="none" xmlns="http://www.w3.org/2000/svg">
<path d="M81.6558 25.7081C81.6543 22.1915 80.7368 18.7124 78.96 15.4861C77.1832 12.2597 74.5849 9.3545 71.3257 6.9501C68.0665 4.54571 64.2156 2.69318 60.0111 1.50704C55.8066 0.320889 51.3378 -0.173674 46.8809 0.0539141C42.424 0.281502 38.0737 1.22641 34.099 2.83022C30.1243 4.43404 26.6096 6.66268 23.7721 9.3784C20.9346 12.0941 18.8346 15.2392 17.602 18.6193C16.3694 21.9993 16.0303 25.5425 16.6056 29.0299C10.3207 31.8233 5.38779 36.1773 2.57761 41.4115C-0.232567 46.6457 -0.761773 52.4654 1.07266 57.9614C2.90709 63.4575 7.00186 68.3203 12.7173 71.7904C18.4327 75.2604 25.4468 77.1421 32.6641 77.1416H43.5511V90H54.4382V77.1416H68.047C74.8719 77.1441 81.493 75.3104 86.8133 71.9445C92.1336 68.5786 95.8337 63.8824 97.3004 58.6341C98.7671 53.3859 97.9125 47.9006 94.8782 43.0871C91.8438 38.2736 86.8119 34.4209 80.6161 32.1673C81.3088 30.0576 81.6582 27.8872 81.6558 25.7081ZM76.1578 39.9895C80.0698 41.4457 83.2362 43.9066 85.1365 46.9676C87.0369 50.0286 87.558 53.5076 86.6144 56.8327C85.6707 60.1579 83.3184 63.1313 79.944 65.2642C76.5697 67.3972 72.3741 68.5628 68.047 68.5694H32.6641C27.5838 68.5735 22.6616 67.1789 18.7496 64.6269C14.8376 62.0748 12.182 58.5261 11.2427 54.5949C10.3033 50.6638 11.1393 46.5978 13.6059 43.1008C16.0725 39.6039 20.0144 36.896 24.7492 35.4462L29.3272 34.0403C28.3637 31.2972 27.2205 28.5884 27.2205 25.7081C27.2205 22.7857 28.1693 19.9118 29.9767 17.3593C31.784 14.8069 34.3901 12.6605 37.5473 11.1241C40.7045 9.58772 44.3081 8.71228 48.0159 8.58092C51.7237 8.44956 55.4126 9.06665 58.7323 10.3736C62.052 11.6805 64.8923 13.6339 66.9835 16.0483C69.0747 18.4627 70.3474 21.2578 70.6807 24.1684C71.0141 27.079 70.3969 30.0084 68.888 32.6784C67.379 35.3483 65.0283 37.6703 62.0591 39.4237L68.5913 46.2815C71.5473 44.5362 74.1058 42.4087 76.1578 39.9895Z" fill="#FF5A00"/>
</svg>
