<svg width="15" height="11" viewBox="0 0 15 11" fill="none" xmlns="http://www.w3.org/2000/svg">
<path d="M8.28125 10.0625C7.98958 10.0625 7.60417 9.89583 7.125 9.5625C6.64583 9.25 6.125 8.84375 5.5625 8.34375C5.02083 7.84375 4.46875 7.28125 3.90625 6.65625C3.36458 6.03125 2.86458 5.41667 2.40625 4.8125C1.96875 4.20833 1.60417 3.63542 1.3125 3.09375C1.04167 2.57292 0.90625 2.16667 0.90625 1.875C0.90625 1.60417 1 1.40625 1.1875 1.28125C1.375 1.15625 1.58333 1.09375 1.8125 1.09375C2.1875 1.09375 2.6875 1.34375 3.3125 1.84375C3.9375 2.36458 4.57292 2.95833 5.21875 3.625C5.88542 4.3125 6.51042 4.98958 7.09375 5.65625C7.67708 6.32292 8.11458 6.82292 8.40625 7.15625C8.65625 6.78125 9.01042 6.23958 9.46875 5.53125C9.94792 4.84375 10.4479 4.15625 10.9688 3.46875C11.5104 2.80208 12.0521 2.20833 12.5938 1.6875C13.1354 1.1875 13.625 0.9375 14.0625 0.9375C14.3125 0.9375 14.5312 0.979167 14.7188 1.0625C14.9062 1.16667 15 1.36458 15 1.65625C15 1.98958 14.8854 2.42708 14.6562 2.96875C14.4271 3.51042 14.1146 4.09375 13.7188 4.71875C13.3438 5.34375 12.9167 5.96875 12.4375 6.59375C11.9583 7.23958 11.4688 7.8125 10.9688 8.3125C10.4688 8.83333 9.97917 9.25 9.5 9.5625C9.04167 9.89583 8.63542 10.0625 8.28125 10.0625Z" fill="#092020"/>
</svg>
