<svg width="72" height="46" viewBox="0 0 72 46" fill="none" xmlns="http://www.w3.org/2000/svg">
<path d="M37.4688 45.75C36.0104 45.75 34.0833 44.9167 31.6875 43.25C29.2917 41.6875 26.6875 39.6562 23.875 37.1562C21.1667 34.6562 18.4062 31.8438 15.5938 28.7188C12.8854 25.5938 10.3854 22.5208 8.09375 19.5C5.90625 16.4792 4.08333 13.6146 2.625 10.9062C1.27083 8.30208 0.59375 6.27083 0.59375 4.8125C0.59375 3.45833 1.0625 2.46875 2 1.84375C2.9375 1.21875 3.97917 0.90625 5.125 0.90625C7 0.90625 9.5 2.15625 12.625 4.65625C15.75 7.26042 18.9271 10.2292 22.1562 13.5625C25.4896 17 28.6146 20.3854 31.5312 23.7188C34.4479 27.0521 36.6354 29.5521 38.0938 31.2188C39.3438 29.3438 41.1146 26.6354 43.4062 23.0938C45.8021 19.6562 48.3021 16.2188 50.9062 12.7812C53.6146 9.44792 56.3229 6.47917 59.0312 3.875C61.7396 1.375 64.1875 0.125 66.375 0.125C67.625 0.125 68.7188 0.333333 69.6562 0.75C70.5938 1.27083 71.0625 2.26042 71.0625 3.71875C71.0625 5.38542 70.4896 7.57292 69.3438 10.2812C68.1979 12.9896 66.6354 15.9062 64.6562 19.0312C62.7812 22.1562 60.6458 25.2812 58.25 28.4062C55.8542 31.6354 53.4062 34.5 50.9062 37C48.4062 39.6042 45.9583 41.6875 43.5625 43.25C41.2708 44.9167 39.2396 45.75 37.4688 45.75Z" fill="#FF5A00"/>
</svg>
