<svg width="681" height="469" viewBox="0 0 681 469" fill="none" xmlns="http://www.w3.org/2000/svg">
<path d="M680.528 373.53C680.528 375.465 679.968 376.993 678.904 378.165C677.84 379.387 676.16 379.998 673.92 379.998C671.68 379.998 670.504 379.54 668.936 378.572C667.48 377.604 666.08 376.433 664.792 375.058C663.56 373.632 662.44 372.104 661.432 370.525C660.536 368.946 659.752 367.571 659.136 366.399C657.512 363.496 655.888 360.644 654.264 357.741C652.752 354.838 651.184 351.934 649.672 348.98L642.728 352.8C642.784 354.787 642.728 356.773 642.392 358.759C642.112 360.746 641.832 362.732 641.72 364.718C641.552 366.094 641.272 367.622 640.936 369.251C640.656 370.83 640.096 372.358 639.312 373.784C638.528 375.16 637.52 376.331 636.176 377.299C634.888 378.266 633.264 378.725 631.304 378.725C629.344 378.725 628.056 378.419 626.936 377.808C625.76 377.146 624.808 376.28 624.024 375.211C623.352 374.192 622.848 373.02 622.512 371.696C622.232 370.372 622.064 369.048 622.064 367.673V366.858C622.064 362.783 622.288 358.759 622.736 354.685C623.296 350.559 623.632 346.434 623.8 342.308C623.968 336.859 624.136 331.46 624.36 326.01C624.584 320.56 624.92 315.161 625.256 309.712C625.312 308.489 625.536 307.267 625.928 306.095C626.32 304.924 626.88 303.905 627.664 302.989C628.448 302.021 629.344 301.257 630.408 300.748C631.584 300.187 632.928 299.933 634.44 299.933C636.848 299.933 638.584 300.697 639.76 302.174C640.992 303.702 641.832 305.484 642.28 307.623C642.728 309.763 642.952 311.953 642.84 314.194V319.847C642.84 324.176 642.728 328.506 642.504 332.835C644.744 331.205 646.872 329.321 648.944 327.181C651.072 325.042 652.976 322.903 654.6 320.713C655.608 319.389 656.728 317.606 658.072 315.365C659.36 313.022 660.816 310.781 662.328 308.693C663.84 306.503 665.576 304.618 667.424 303.04C669.272 301.41 671.232 300.544 673.304 300.544C675.376 300.544 677.168 301.104 678.176 302.276C679.24 303.396 679.8 304.873 679.8 306.707C679.8 309.457 679.296 312.258 678.288 315.161C677.392 318.065 676.104 320.917 674.48 323.718C672.856 326.468 671.008 329.117 668.936 331.663C666.92 334.159 664.904 336.298 662.832 338.132C664.96 341.341 667.032 344.6 668.936 347.911C670.84 351.12 672.8 354.379 674.704 357.69C675.376 358.81 676.048 359.982 676.664 361.306C677.336 362.63 677.952 363.954 678.512 365.33C679.072 366.705 679.464 368.08 679.8 369.455C680.192 370.83 680.36 372.155 680.36 373.377L680.528 373.53Z" fill="white"/>
<path d="M618.648 331.714C618.648 337.775 617.248 343.582 614.504 349.235C611.76 354.787 608.008 359.727 603.304 364.056C598.712 368.386 593.28 371.849 587.008 374.447C580.848 376.993 574.352 378.266 567.52 378.266H567.297C565.897 378.266 564.776 377.706 563.824 376.637C562.984 375.465 562.256 374.039 561.64 372.307C561.024 370.576 560.576 368.691 560.24 366.552C559.96 364.413 559.68 362.376 559.568 360.389C559.4 358.352 559.344 356.518 559.344 354.94V351.221C559.344 348.879 559.345 346.587 559.457 344.295C559.513 341.952 559.625 339.609 559.793 337.266C559.793 336.502 559.792 335.432 559.904 333.955C560.072 332.427 560.185 330.747 560.353 328.913C560.521 327.08 560.689 325.144 560.913 323.158C561.137 321.12 561.36 319.185 561.584 317.504C561.864 315.722 562.144 314.194 562.368 312.869C562.648 311.494 563.041 310.578 563.433 310.068C564.441 308.54 565.952 307.216 568.024 306.045C570.096 304.873 572.336 303.905 574.744 303.141C577.208 302.377 579.673 301.817 582.137 301.512C584.657 301.104 586.896 300.9 588.744 300.9C593.84 300.9 598.208 301.766 601.904 303.498C605.656 305.128 608.793 307.42 611.257 310.272C613.777 313.073 615.624 316.333 616.8 320.051C618.032 323.769 618.648 327.64 618.648 331.714ZM599.273 334.719C599.273 333.191 598.993 331.663 598.377 330.085C597.761 328.506 596.864 327.08 595.744 325.755C594.68 324.431 593.337 323.412 591.713 322.648C590.201 321.834 588.464 321.426 586.504 321.426C584.544 321.426 583.256 321.783 581.52 322.445C581.128 322.648 580.793 323.311 580.457 324.38C580.121 325.399 579.897 326.672 579.673 328.2C579.505 329.728 579.392 331.358 579.224 333.14C579.056 334.923 578.944 336.655 578.888 338.285C578.888 339.864 578.889 341.29 578.777 342.512V348.115C578.777 349.49 578.776 350.712 578.888 352.036C579.056 353.361 579.225 354.481 579.337 355.449C579.505 356.417 579.784 356.875 580.12 356.875C582.416 356.875 584.713 356.06 586.953 354.481C589.249 352.851 591.32 350.865 593.168 348.522C595.016 346.179 596.473 343.734 597.537 341.188C598.713 338.641 599.273 336.502 599.273 334.719Z" fill="white"/>
<path d="M552.849 333.854C552.849 335.382 552.793 337.521 552.625 340.322C552.457 343.072 552.177 346.128 551.729 349.49C551.337 352.8 550.777 356.162 549.993 359.676C549.209 363.089 548.201 366.247 546.969 369.048C545.737 371.849 544.225 374.192 542.489 376.076C540.697 377.859 538.625 378.776 536.161 378.776C533.697 378.776 531.737 378.216 529.833 377.044C527.929 375.822 526.193 374.345 524.625 372.613C523.113 370.83 521.713 368.946 520.593 366.96C519.417 364.973 518.465 363.14 517.681 361.51C516.057 357.995 514.433 354.583 512.809 351.221C511.185 347.809 509.673 344.295 508.217 340.831V343.734C508.217 346.689 508.217 349.643 508.105 352.597C508.105 355.5 507.881 358.352 507.433 361.255C507.265 362.427 507.097 363.802 506.873 365.381C506.705 366.909 506.425 368.386 506.089 369.914C505.697 371.442 505.137 372.817 504.353 374.141C503.681 375.465 502.673 376.382 501.441 377.044C500.769 377.401 500.097 377.604 499.481 377.655C498.921 377.706 498.305 377.808 497.633 377.961H497.297C495.505 377.961 494.049 377.452 492.817 376.433C491.585 375.312 490.521 373.937 489.681 372.307C488.841 370.576 488.169 368.691 487.609 366.654C487.161 364.515 486.769 362.478 486.433 360.491C486.209 358.454 486.041 356.518 485.985 354.838C485.929 353.106 485.873 351.731 485.873 350.712C485.873 349.133 485.929 346.841 486.097 343.785C486.265 340.679 486.545 337.317 486.993 333.599C487.553 329.881 488.169 326.061 488.953 322.19C489.793 318.268 490.857 314.754 492.201 311.596C493.489 308.387 495.113 305.739 496.961 303.753C498.809 301.715 500.937 300.646 503.401 300.646C505.865 300.646 507.881 301.461 509.729 303.141C511.633 304.771 513.369 306.758 514.825 308.999C516.281 311.24 517.513 313.634 518.521 316.129C519.529 318.625 520.369 320.662 521.041 322.292C522.329 325.501 523.617 328.76 524.849 331.969C526.081 335.127 527.257 338.336 528.433 341.646C528.489 341.799 528.657 342.156 528.881 342.767C529.105 343.378 529.385 344.091 529.665 344.804C530.001 345.619 530.337 346.536 530.841 347.605C530.841 346.689 530.841 346.077 530.729 345.772V341.29C530.673 339.049 530.561 336.757 530.505 334.516V323.82C530.561 322.088 530.673 320.306 530.841 318.37C531.065 316.384 531.401 314.398 531.737 312.411C532.129 310.425 532.633 308.642 533.361 307.063C534.145 305.433 535.041 304.058 536.105 303.04C537.281 302.021 538.625 301.512 540.249 301.512C541.873 301.512 543.833 302.174 545.233 303.447C546.633 304.771 547.753 306.452 548.705 308.489C549.601 310.476 550.385 312.768 550.889 315.263C551.449 317.759 551.841 320.153 552.177 322.598C552.457 324.991 552.681 327.232 552.737 329.27C552.793 331.307 552.849 332.937 552.849 334.108V333.854Z" fill="white"/>
<path d="M481.784 361.917C481.784 363.241 481.392 364.515 480.608 365.737C479.824 366.909 478.032 368.284 475.176 369.863C472.32 371.442 469.184 372.97 465.712 374.396C462.24 375.771 458.88 376.993 455.688 378.012C452.44 378.98 450.088 379.438 448.52 379.438C446.952 379.438 446.168 379.183 444.712 378.725C443.256 378.317 441.8 377.757 440.344 377.095C438.888 376.433 437.544 375.618 436.312 374.701C435.136 373.784 434.296 372.97 433.792 372.104C433.512 371.645 433.176 370.678 432.896 369.201C432.672 367.774 432.448 366.094 432.224 364.158C432.056 362.223 431.944 360.186 431.776 358.097C431.608 355.907 431.496 353.819 431.328 351.935C431.272 349.948 431.16 348.216 431.104 346.689V343.378C431.104 340.831 431.16 337.928 431.328 334.618C431.552 331.307 431.944 328.047 432.504 324.737C433.064 321.375 433.792 318.166 434.8 315.161C435.864 312.055 437.32 309.457 439.056 307.318C439.616 306.707 440.68 306.045 442.304 305.382C443.928 304.72 445.832 304.058 447.96 303.447C450.2 302.836 452.552 302.225 455.128 301.715C457.648 301.155 460.112 300.697 462.408 300.391C464.816 299.984 466.944 299.678 468.848 299.474C470.752 299.22 472.208 299.067 473.216 299.067C474.224 299.067 475.456 299.322 476.464 299.78C477.528 300.187 478.424 300.799 479.096 301.512C479.88 302.276 480.44 303.141 480.832 304.109C481.28 305.026 481.504 305.943 481.504 307.012C481.504 308.082 481.336 308.642 481.056 309.253C480.832 309.864 480.44 310.578 479.88 311.291C479.096 312.207 477.472 313.226 475.008 314.499C472.544 315.722 469.856 316.995 466.944 318.217C464.088 319.389 461.344 320.458 458.656 321.426C456.024 322.394 454.176 323.056 453.112 323.463C452.776 325.042 452.44 326.672 452.048 328.302C451.768 329.881 451.488 331.511 451.376 333.141C453.784 332.02 456.472 331.001 459.44 330.034C462.464 329.066 465.264 328.608 468.008 328.608C473.496 328.608 476.184 331.001 476.184 335.84C476.184 340.679 475.904 338.03 475.4 338.947C474.952 339.864 474.28 340.628 473.44 341.341C472.656 342.003 471.76 342.665 470.696 343.174C469.688 343.633 468.68 344.142 467.672 344.6C465.208 345.772 462.632 346.79 459.944 347.707C457.256 348.522 454.568 349.337 451.88 350.203C451.712 350.763 451.6 351.374 451.432 352.036C451.264 352.648 451.208 353.259 451.208 353.87C451.208 354.838 451.264 355.805 451.432 356.773C451.6 357.741 451.768 358.709 451.88 359.676C452.776 359.422 454.288 358.963 456.248 358.352C458.32 357.741 460.504 357.13 462.688 356.518C464.928 355.907 467.056 355.398 469.128 354.99C471.2 354.532 472.768 354.277 473.72 354.277C474.672 354.277 475.96 354.532 476.968 354.99C477.976 355.398 478.816 356.009 479.488 356.722C480.16 357.384 480.72 358.25 481.112 359.218C481.56 360.186 481.784 361.153 481.784 362.121V361.917Z" fill="white"/>
<path d="M429.873 363.853C429.873 365.584 429.089 367.163 427.465 368.691C425.953 370.219 423.881 371.594 421.361 372.817C418.897 374.039 416.153 375.16 413.073 376.127C409.993 377.044 406.969 377.757 403.945 378.368C400.921 379.031 398.121 379.591 395.377 379.896C392.745 380.253 390.673 380.406 389.161 380.406C387.649 380.406 386.137 380.253 384.401 379.998C382.777 379.795 381.433 379.285 380.369 378.47C379.753 378.063 379.193 377.146 378.745 375.669C378.297 374.243 377.849 372.511 377.345 370.525C376.953 368.539 376.617 366.399 376.281 364.158C376.001 361.815 375.721 359.574 375.497 357.384C375.329 355.194 375.161 353.157 375.049 351.323C374.993 349.49 374.937 348.013 374.937 346.994C374.937 345.262 374.937 343.225 375.049 340.831C375.217 338.336 375.385 335.738 375.609 332.988C375.833 330.187 376.169 327.334 376.505 324.431C376.897 321.528 377.289 318.829 377.793 316.282C378.353 313.685 378.969 311.342 379.641 309.253C380.425 307.216 381.209 305.586 382.049 304.415C383.505 302.581 385.353 301.614 387.593 301.614C389.833 301.614 390.449 302.072 391.513 303.04C392.577 303.956 393.417 305.128 394.033 306.656C394.705 308.082 395.209 309.763 395.545 311.596C395.937 313.379 396.217 315.162 396.329 316.944C396.497 318.727 396.553 320.357 396.553 321.885V325.501C396.553 330.849 396.385 336.197 396.105 341.443C395.881 346.638 395.769 351.935 395.769 357.283V361.306C399.241 360.338 402.993 359.473 407.081 358.607C411.169 357.69 415.033 357.283 418.729 357.283C422.425 357.283 421.361 357.333 422.649 357.486C424.049 357.639 425.225 357.945 426.233 358.403C427.297 358.81 428.137 359.473 428.753 360.338C429.425 361.153 429.817 362.274 429.817 363.751L429.873 363.853Z" fill="white"/>
<path d="M315.632 373.53C315.632 375.465 315.072 376.993 314.008 378.165C312.944 379.387 311.264 379.998 309.024 379.998C306.784 379.998 305.608 379.54 304.04 378.572C302.584 377.604 301.184 376.433 299.896 375.058C298.664 373.632 297.544 372.104 296.536 370.525C295.64 368.946 294.856 367.571 294.24 366.399C292.616 363.496 290.992 360.644 289.368 357.741C287.856 354.838 286.288 351.934 284.776 348.98L277.832 352.8C277.888 354.787 277.832 356.773 277.496 358.759C277.216 360.746 276.936 362.732 276.824 364.718C276.656 366.094 276.376 367.622 276.04 369.251C275.76 370.83 275.2 372.358 274.416 373.784C273.632 375.16 272.624 376.331 271.28 377.299C269.992 378.266 268.368 378.725 266.408 378.725C264.448 378.725 263.16 378.419 262.04 377.808C260.864 377.146 259.912 376.28 259.128 375.211C258.456 374.192 257.952 373.02 257.616 371.696C257.336 370.372 257.168 369.048 257.168 367.673V366.858C257.168 362.783 257.392 358.759 257.84 354.685C258.4 350.559 258.736 346.434 258.904 342.308C259.072 336.859 259.24 331.46 259.464 326.01C259.688 320.56 260.024 315.161 260.36 309.712C260.416 308.489 260.64 307.267 261.032 306.095C261.424 304.924 261.984 303.905 262.768 302.989C263.552 302.021 264.448 301.257 265.512 300.748C266.688 300.187 268.032 299.933 269.544 299.933C271.952 299.933 273.688 300.697 274.864 302.174C276.096 303.702 276.936 305.484 277.384 307.623C277.832 309.763 278.056 311.953 277.944 314.194V319.847C277.944 324.176 277.832 328.506 277.608 332.835C279.848 331.205 281.976 329.321 284.048 327.181C286.176 325.042 288.08 322.903 289.704 320.713C290.712 319.389 291.832 317.606 293.176 315.365C294.464 313.022 295.92 310.781 297.432 308.693C298.944 306.503 300.68 304.618 302.528 303.04C304.376 301.41 306.336 300.544 308.408 300.544C310.48 300.544 312.272 301.104 313.28 302.276C314.344 303.396 314.904 304.873 314.904 306.707C314.904 309.457 314.4 312.258 313.392 315.161C312.496 318.065 311.208 320.917 309.584 323.718C307.96 326.468 306.112 329.117 304.04 331.663C302.024 334.159 300.008 336.298 297.936 338.132C300.064 341.341 302.136 344.6 304.04 347.911C305.944 351.12 307.904 354.379 309.808 357.69C310.48 358.81 311.152 359.982 311.768 361.306C312.44 362.63 313.056 363.954 313.616 365.33C314.176 366.705 314.568 368.08 314.904 369.455C315.296 370.83 315.464 372.155 315.464 373.377L315.632 373.53Z" fill="white"/>
<path d="M254.928 305.739C254.928 307.318 254.368 308.693 253.192 309.865C252.128 311.036 250.784 312.004 249.272 312.768C247.872 313.532 246.472 314.347 245.016 315.263C243.56 316.078 242.216 317.046 240.984 318.167C239.752 319.185 238.744 320.357 237.96 321.681C237.176 323.005 236.784 324.482 236.784 326.112C236.784 327.742 237.176 328.862 237.96 330.034C238.744 331.205 239.64 332.377 240.704 333.548C241.88 334.669 243.112 335.789 244.4 337.062C245.8 338.234 247.032 339.558 248.096 341.086C249.272 342.512 250.224 344.193 251.008 346.027C251.792 347.86 252.184 350.05 252.184 352.495C252.184 354.227 251.736 356.162 250.896 358.352C250.112 360.491 249.048 362.63 247.648 364.82C246.248 367.011 244.624 369.15 242.664 371.187C240.816 373.224 238.8 375.109 236.672 376.739C234.6 378.318 232.416 379.591 230.064 380.559C227.768 381.577 225.528 382.087 223.344 382.087C221.16 382.087 218.864 381.526 217.016 380.355C215.168 379.183 214.272 377.452 214.272 375.109C214.272 372.766 214.72 372.104 215.56 370.78C216.4 369.404 217.464 368.08 218.696 366.858C219.928 365.635 221.272 364.413 222.728 363.242C224.24 362.07 225.64 360.899 226.872 359.727C228.104 358.556 229.168 357.333 230.008 356.111C230.848 354.787 231.296 353.412 231.296 351.986C231.296 350.559 230.512 347.962 228.888 345.925C227.376 343.785 225.64 341.646 223.68 339.456C221.776 337.164 219.984 334.872 218.36 332.529C216.848 330.187 216.064 327.844 216.064 325.399C216.064 322.445 216.96 319.338 218.696 316.129C220.488 312.819 222.728 309.865 225.528 307.165C228.272 304.415 231.408 302.174 234.88 300.391C238.352 298.609 241.768 297.692 245.128 297.692C247.816 297.692 250.112 298.405 252.072 299.831C253.976 301.257 254.984 303.243 254.984 305.688L254.928 305.739Z" fill="white"/>
<path d="M211.528 339.762V342.359C211.472 344.906 211.304 347.605 211.08 350.508C210.856 353.411 210.464 356.264 209.904 359.065C209.344 361.866 208.56 364.617 207.496 367.214C206.432 369.761 204.976 372.002 203.128 373.988C201.28 375.974 198.984 377.553 196.296 378.725C193.608 379.896 190.304 380.456 186.496 380.456C182.352 380.456 178.656 379.642 175.52 378.063C172.44 376.484 169.864 374.446 167.792 371.9C165.72 369.302 164.152 366.399 163.2 363.241C162.192 360.033 161.688 356.773 161.688 353.462C161.688 350.152 161.856 350.406 162.248 348.624C162.528 346.841 163.144 345.211 163.984 343.683C164.824 342.105 165.888 340.78 167.232 339.762C168.632 338.641 170.368 338.132 172.44 338.132C174.512 338.132 176.304 338.692 177.424 339.762C178.6 340.882 179.384 342.257 179.832 343.887C180.392 345.466 180.728 347.198 180.896 349.133C181.064 350.967 181.232 352.749 181.456 354.379C181.68 355.958 182.072 357.282 182.632 358.403C183.248 359.523 184.256 360.033 185.656 360.033C187.056 360.033 188.568 359.421 189.464 358.199C190.36 356.977 191.032 355.5 191.424 353.87C191.872 352.138 192.152 350.457 192.208 348.726C192.376 346.994 192.432 345.67 192.432 344.702C192.432 340.831 192.04 337.113 191.256 333.497C190.584 329.779 189.688 326.061 188.624 322.292C188.064 320.356 187.504 318.421 186.888 316.435C186.272 314.448 185.992 312.462 185.992 310.476C185.992 308.489 186.664 306.248 188.064 304.822C189.464 303.294 191.48 302.581 194.168 302.581C196.856 302.581 197.752 302.938 198.928 303.702C200.104 304.364 201.224 305.433 202.4 306.809C204.192 308.948 205.648 311.392 206.768 314.143C208 316.893 208.952 319.745 209.68 322.699C210.352 325.653 210.856 328.658 211.192 331.663C211.528 334.617 211.64 337.368 211.64 339.914L211.528 339.762Z" fill="white"/>
<path d="M341.925 379.285C337.221 379.285 333.133 378.216 329.661 376.076C326.189 374.039 323.333 371.238 320.981 367.724C318.741 364.158 317.061 360.033 315.885 355.347C314.821 350.661 314.261 345.772 314.261 340.628C314.261 335.483 314.821 330.95 315.997 326.01C317.229 321.07 319.077 316.588 321.541 312.615C324.005 308.642 327.141 305.382 330.893 302.836C334.645 300.289 339.181 299.016 344.389 299.016C349.597 299.016 353.685 300.238 357.101 302.734C360.573 305.128 363.317 308.286 365.277 312.207C367.349 316.078 368.805 320.357 369.645 325.195C370.541 329.983 371.045 334.821 371.045 339.609C371.045 344.957 370.429 350.05 369.197 354.838C368.021 359.574 366.229 363.751 363.765 367.418C361.357 371.034 358.333 373.937 354.637 376.076C350.997 378.216 346.741 379.285 341.813 379.285H341.925ZM343.325 321.783C341.869 321.783 340.581 322.292 339.517 323.311C338.509 324.329 337.669 325.704 336.997 327.436C336.325 329.066 335.821 330.95 335.485 333.09C335.205 335.127 335.037 337.266 335.037 339.354C335.037 341.443 335.205 344.142 335.485 346.587C335.877 348.98 336.381 351.171 337.109 353.055C337.781 354.991 338.621 356.518 339.629 357.69C340.693 358.861 341.981 359.422 343.437 359.422C344.893 359.422 346.461 358.658 347.469 357.181C348.477 355.653 349.261 353.87 349.765 351.731C350.381 349.592 350.773 347.402 350.941 345.161C351.165 342.92 351.277 340.984 351.277 339.507C351.277 338.03 351.109 335.687 350.829 333.65C350.605 331.613 350.157 329.677 349.541 327.996C348.925 326.214 348.141 324.737 347.133 323.565C346.125 322.394 344.837 321.834 343.325 321.834V321.783Z" fill="white"/>
<path d="M109.317 384.261C84.6253 384.261 64.5337 365.085 64.5337 341.519C64.5337 317.953 84.6253 298.777 109.317 298.777C134.009 298.777 154.1 317.953 154.1 341.519C154.1 365.085 134.009 384.261 109.317 384.261ZM109.317 303.457C87.3256 303.457 69.4379 320.53 69.4379 341.519C69.4379 362.508 87.3256 379.581 109.317 379.581C131.308 379.581 149.196 362.508 149.196 341.519C149.196 320.53 131.308 303.457 109.317 303.457Z" fill="white"/>
<path d="M109.317 377.991C88.2436 377.991 71.103 361.632 71.103 341.519C71.103 321.406 88.2436 305.046 109.317 305.046C130.391 305.046 147.531 321.406 147.531 341.519C147.531 361.632 130.391 377.991 109.317 377.991ZM109.317 308.24C90.09 308.24 74.449 323.168 74.449 341.519C74.449 359.87 90.09 374.798 109.317 374.798C128.544 374.798 144.185 359.87 144.185 341.519C144.185 323.168 128.544 308.24 109.317 308.24Z" fill="white"/>
<path d="M109.402 343.709C110.555 343.709 111.489 342.817 111.489 341.717C111.489 340.618 110.555 339.726 109.402 339.726C108.25 339.726 107.316 340.618 107.316 341.717C107.316 342.817 108.25 343.709 109.402 343.709Z" fill="white"/>
<path d="M109.157 342.018C108.767 342.018 108.421 341.758 108.341 341.381L106.942 335.02C106.846 334.587 107.14 334.164 107.588 334.073C108.036 333.981 108.485 334.256 108.581 334.689L109.979 341.05C110.075 341.483 109.781 341.906 109.333 341.998C109.274 342.008 109.216 342.013 109.162 342.013L109.157 342.018Z" fill="white"/>
<path d="M107.759 335.656C107.583 335.656 107.407 335.605 107.257 335.498L88.1421 321.879C87.7739 321.614 87.6939 321.115 87.9714 320.758C88.2489 320.402 88.7718 320.33 89.1454 320.595L108.26 334.214C108.629 334.479 108.709 334.978 108.431 335.335C108.266 335.544 108.015 335.656 107.759 335.656Z" fill="white"/>
<path d="M108.613 342.517C108.543 342.517 108.474 342.507 108.405 342.492L101.809 340.862C101.36 340.75 101.094 340.317 101.206 339.889C101.323 339.461 101.777 339.201 102.225 339.313L108.821 340.943C109.269 341.055 109.536 341.488 109.424 341.916C109.328 342.278 108.986 342.517 108.613 342.517Z" fill="white"/>
<path d="M102.017 340.887C101.75 340.887 101.483 340.765 101.323 340.536L87.95 321.681C87.6885 321.314 87.7899 320.82 88.1741 320.571C88.5583 320.321 89.076 320.418 89.3375 320.784L102.711 339.64C102.972 340.006 102.871 340.5 102.486 340.75C102.342 340.842 102.177 340.887 102.017 340.887Z" fill="white"/>
<path d="M110.806 349.373C110.416 349.373 110.069 349.113 109.989 348.736L108.591 342.375C108.495 341.942 108.788 341.519 109.237 341.427C109.685 341.336 110.133 341.611 110.229 342.044L111.627 348.405C111.723 348.838 111.435 349.261 110.982 349.352C110.923 349.363 110.864 349.368 110.811 349.368L110.806 349.373Z" fill="white"/>
<path d="M129.921 362.997C129.744 362.997 129.568 362.946 129.419 362.839L110.304 349.22C109.936 348.955 109.856 348.456 110.133 348.099C110.411 347.743 110.934 347.672 111.307 347.936L130.422 361.556C130.79 361.82 130.87 362.32 130.593 362.676C130.428 362.885 130.177 362.997 129.921 362.997Z" fill="white"/>
<path d="M116.548 344.142C116.478 344.142 116.409 344.132 116.339 344.116L109.744 342.487C109.295 342.375 109.029 341.942 109.141 341.514C109.258 341.086 109.712 340.831 110.16 340.938L116.756 342.568C117.204 342.68 117.471 343.113 117.359 343.541C117.263 343.902 116.921 344.142 116.548 344.142Z" fill="white"/>
<path d="M129.92 362.997C129.654 362.997 129.387 362.875 129.227 362.646L115.854 343.79C115.592 343.424 115.694 342.93 116.078 342.68C116.462 342.431 116.98 342.527 117.241 342.894L130.614 361.749C130.876 362.116 130.774 362.61 130.39 362.859C130.246 362.951 130.081 362.997 129.92 362.997Z" fill="white"/>
<path d="M87.2613 363.562C87.0478 363.562 86.8344 363.486 86.6689 363.328C86.3434 363.017 86.3434 362.508 86.6689 362.197L90.5272 358.515C90.8527 358.204 91.3863 358.204 91.7119 358.515C92.0374 358.826 92.0374 359.335 91.7119 359.646L87.8536 363.328C87.6882 363.486 87.4747 363.562 87.2613 363.562Z" fill="white"/>
<path d="M127.775 324.92C127.562 324.92 127.349 324.844 127.183 324.686C126.858 324.375 126.858 323.866 127.183 323.555L131.041 319.873C131.367 319.562 131.9 319.562 132.226 319.873C132.552 320.183 132.552 320.693 132.226 321.003L128.368 324.686C128.202 324.844 127.989 324.92 127.775 324.92Z" fill="white"/>
<path d="M56.9453 319.055C56.9453 324.884 56.7693 330.722 56.4844 336.658C56.1995 342.488 55.7973 348.325 55.2778 354.155C55.2192 355.199 55.1019 356.655 55.0516 358.476C54.993 360.244 54.8254 362.172 54.5908 364.26C54.3646 366.295 54.021 368.375 53.6775 370.456C53.334 372.536 52.6469 374.517 51.7839 376.24C50.9795 377.909 49.9489 379.311 48.5747 380.355C47.3179 381.498 45.7678 382.024 43.8826 382.024C41.9974 382.024 40.7321 381.711 39.4166 381.086C38.1598 380.462 37.0706 379.631 36.2076 378.64C35.3446 377.596 34.6575 376.453 34.205 375.15C33.7442 373.793 33.5179 372.445 33.5179 371.035C33.5179 368.741 33.5766 366.401 33.7442 364.108C33.9201 361.715 34.1464 359.368 34.4313 357.028L22.7511 358.072C22.5249 359.893 22.2316 362.134 21.9467 364.687C21.7205 367.24 21.1424 369.686 20.2877 372.079C19.4834 374.373 18.2852 376.4 16.6262 378.069C14.9671 379.738 12.6713 380.622 9.75548 380.622C6.83963 380.622 6.43743 380.256 5.28953 379.478C4.08297 378.8 3.1697 377.863 2.48263 376.72C1.79556 375.523 1.27604 374.22 0.932507 372.81C0.647626 371.401 0.47168 370.052 0.47168 368.802C0.47168 364.58 0.64763 360.419 1.04144 356.251C1.44362 352.029 1.72852 347.815 1.84583 343.593C2.02178 339.165 2.02179 334.738 1.96314 330.31C1.96314 325.829 2.02176 321.303 2.18934 316.822C2.24799 315.366 2.30665 313.644 2.30665 311.663C2.36531 309.681 2.65021 307.86 3.11104 306.191C3.68081 304.423 4.54379 302.96 5.6917 301.763C6.94853 300.567 8.78351 299.995 11.2469 299.995C14.6236 299.995 17.2043 300.826 18.922 302.442C20.6396 304.004 21.8965 305.932 22.5835 308.325C23.2706 310.619 23.6728 313.118 23.6728 315.823V322.903C23.6728 325.037 23.6141 328.474 23.4465 331.232C23.2706 333.892 23.1617 336.597 22.9857 339.356L35.6378 337.687C35.6964 334.25 35.8137 330.867 35.864 327.483C35.9227 324.099 36.0902 320.762 36.3248 317.378C36.3835 315.762 36.5008 314.048 36.5511 312.219C36.6097 310.398 36.9533 308.729 37.4644 307.166C38.0342 305.604 38.8972 304.354 40.154 303.364C41.4695 302.32 43.4721 301.801 46.0527 301.801C48.6334 301.801 50.0076 302.373 51.3817 303.47C52.8145 304.613 53.9037 305.97 54.6997 307.586C55.5627 309.201 56.1325 310.916 56.4761 312.745C56.7609 314.566 56.9369 316.235 56.9369 317.69V319.047L56.9453 319.055Z" fill="white"/>
<path d="M114.501 317.053C114.501 317.291 114.49 317.631 114.469 318.073C114.447 318.505 114.404 318.986 114.339 319.515C114.285 320.033 114.204 320.567 114.096 321.118C113.988 321.658 113.848 322.149 113.675 322.591C113.502 323.034 113.292 323.401 113.044 323.692C112.795 323.973 112.498 324.113 112.153 324.113C111.829 324.113 111.532 324.022 111.262 323.838C110.992 323.644 110.75 323.412 110.534 323.142C110.318 322.861 110.129 322.564 109.967 322.251C109.805 321.938 109.67 321.652 109.562 321.393C109.335 320.842 109.109 320.303 108.882 319.774C108.655 319.234 108.439 318.689 108.234 318.138V318.592C108.234 319.056 108.229 319.52 108.218 319.984C108.218 320.438 108.186 320.891 108.121 321.344C108.099 321.528 108.072 321.744 108.04 321.992C108.018 322.23 107.981 322.467 107.927 322.705C107.873 322.942 107.792 323.163 107.684 323.369C107.587 323.574 107.452 323.725 107.279 323.822C107.182 323.876 107.09 323.908 107.004 323.919C106.928 323.93 106.842 323.946 106.744 323.968H106.696C106.448 323.968 106.237 323.887 106.064 323.725C105.892 323.552 105.746 323.336 105.627 323.077C105.508 322.807 105.411 322.51 105.336 322.186C105.271 321.852 105.217 321.528 105.174 321.215C105.141 320.891 105.12 320.594 105.109 320.324C105.098 320.054 105.093 319.838 105.093 319.677C105.093 319.428 105.104 319.067 105.125 318.592C105.147 318.106 105.19 317.571 105.255 316.989C105.33 316.406 105.422 315.806 105.53 315.191C105.649 314.576 105.8 314.02 105.983 313.523C106.167 313.016 106.388 312.606 106.647 312.293C106.906 311.969 107.209 311.807 107.554 311.807C107.889 311.807 108.186 311.936 108.445 312.195C108.715 312.455 108.952 312.762 109.157 313.118C109.362 313.475 109.535 313.847 109.675 314.236C109.816 314.624 109.935 314.948 110.032 315.207C110.215 315.715 110.393 316.222 110.566 316.729C110.739 317.226 110.906 317.733 111.068 318.252C111.079 318.273 111.1 318.333 111.133 318.43C111.165 318.527 111.203 318.635 111.246 318.754C111.289 318.883 111.343 319.029 111.408 319.191C111.408 319.05 111.403 318.953 111.392 318.899C111.392 318.835 111.392 318.781 111.392 318.737C111.392 318.683 111.392 318.619 111.392 318.543C111.392 318.467 111.392 318.349 111.392 318.187C111.381 317.831 111.37 317.474 111.359 317.118C111.359 316.762 111.359 316.411 111.359 316.066C111.359 315.914 111.359 315.704 111.359 315.434C111.37 315.164 111.386 314.878 111.408 314.576C111.44 314.263 111.484 313.95 111.538 313.637C111.592 313.324 111.667 313.043 111.764 312.795C111.872 312.535 112.002 312.325 112.153 312.163C112.315 312.001 112.509 311.92 112.736 311.92C113.006 311.92 113.238 312.023 113.432 312.228C113.626 312.433 113.788 312.697 113.918 313.021C114.048 313.334 114.15 313.691 114.226 314.09C114.301 314.479 114.361 314.862 114.404 315.24C114.447 315.618 114.474 315.968 114.485 316.292C114.496 316.616 114.501 316.87 114.501 317.053Z" fill="white"/>
<path d="M140.016 346.86C140.016 347.065 139.962 347.264 139.854 347.459C139.746 347.642 139.493 347.858 139.093 348.106C138.694 348.355 138.251 348.592 137.765 348.819C137.28 349.035 136.81 349.224 136.357 349.386C135.903 349.537 135.568 349.612 135.353 349.612C135.201 349.612 135.023 349.575 134.818 349.499C134.613 349.434 134.408 349.348 134.203 349.24C133.998 349.132 133.809 349.008 133.636 348.867C133.474 348.727 133.355 348.592 133.28 348.463C133.237 348.387 133.194 348.236 133.15 348.009C133.118 347.783 133.086 347.518 133.053 347.216C133.032 346.914 133.01 346.595 132.988 346.26C132.967 345.915 132.945 345.591 132.924 345.289C132.913 344.976 132.902 344.7 132.891 344.463C132.891 344.226 132.891 344.053 132.891 343.945C132.891 343.545 132.902 343.087 132.924 342.568C132.956 342.05 133.01 341.532 133.086 341.014C133.161 340.485 133.269 339.983 133.409 339.508C133.561 339.022 133.76 338.612 134.009 338.277C134.084 338.18 134.235 338.078 134.462 337.97C134.689 337.862 134.953 337.759 135.255 337.662C135.568 337.565 135.903 337.473 136.259 337.387C136.616 337.3 136.956 337.23 137.28 337.176C137.614 337.111 137.916 337.063 138.186 337.03C138.456 336.987 138.661 336.966 138.802 336.966C138.964 336.966 139.115 337.003 139.255 337.079C139.406 337.144 139.53 337.236 139.628 337.354C139.735 337.473 139.816 337.608 139.87 337.759C139.935 337.899 139.968 338.051 139.968 338.213C139.968 338.353 139.946 338.472 139.903 338.569C139.87 338.666 139.816 338.774 139.741 338.893C139.633 339.033 139.406 339.2 139.061 339.395C138.715 339.589 138.337 339.783 137.927 339.978C137.528 340.161 137.139 340.328 136.761 340.48C136.394 340.631 136.135 340.739 135.984 340.803C135.941 341.052 135.892 341.305 135.838 341.564C135.795 341.813 135.763 342.066 135.741 342.326C136.076 342.153 136.454 341.991 136.875 341.84C137.296 341.689 137.695 341.613 138.073 341.613C138.839 341.613 139.223 341.991 139.223 342.747C139.223 342.93 139.185 343.092 139.109 343.232C139.045 343.373 138.953 343.497 138.834 343.605C138.726 343.713 138.597 343.81 138.445 343.896C138.305 343.972 138.165 344.047 138.024 344.123C137.679 344.306 137.317 344.468 136.939 344.609C136.562 344.738 136.184 344.868 135.806 344.997C135.784 345.084 135.763 345.181 135.741 345.289C135.72 345.386 135.709 345.483 135.709 345.58C135.709 345.731 135.72 345.883 135.741 346.034C135.763 346.185 135.784 346.336 135.806 346.487C135.936 346.444 136.141 346.374 136.421 346.277C136.713 346.179 137.015 346.082 137.328 345.985C137.641 345.888 137.943 345.807 138.235 345.742C138.526 345.667 138.742 345.629 138.883 345.629C139.045 345.629 139.196 345.667 139.336 345.742C139.476 345.807 139.595 345.899 139.692 346.018C139.789 346.125 139.865 346.255 139.919 346.406C139.984 346.557 140.016 346.708 140.016 346.86Z" fill="white"/>
<path d="M113.275 361.02C113.275 361.268 113.194 361.484 113.032 361.667C112.881 361.851 112.697 362.002 112.481 362.121C112.287 362.239 112.087 362.369 111.882 362.509C111.677 362.639 111.488 362.79 111.315 362.963C111.142 363.125 111.002 363.308 110.894 363.513C110.786 363.718 110.732 363.95 110.732 364.21C110.732 364.436 110.786 364.641 110.894 364.825C111.002 365.008 111.132 365.192 111.283 365.375C111.445 365.548 111.617 365.732 111.801 365.926C111.995 366.109 112.168 366.32 112.319 366.558C112.481 366.784 112.616 367.043 112.724 367.335C112.832 367.626 112.886 367.966 112.886 368.355C112.886 368.625 112.827 368.932 112.708 369.278C112.6 369.613 112.449 369.953 112.254 370.298C112.06 370.644 111.828 370.978 111.558 371.302C111.299 371.626 111.018 371.917 110.716 372.176C110.425 372.425 110.117 372.624 109.793 372.776C109.469 372.938 109.156 373.018 108.854 373.018C108.519 373.018 108.222 372.927 107.963 372.743C107.704 372.56 107.575 372.284 107.575 371.917C107.575 371.669 107.634 371.442 107.753 371.237C107.871 371.021 108.017 370.816 108.19 370.622C108.363 370.428 108.552 370.239 108.757 370.055C108.973 369.872 109.167 369.688 109.34 369.505C109.512 369.321 109.658 369.132 109.777 368.938C109.896 368.733 109.955 368.517 109.955 368.29C109.955 367.977 109.842 367.659 109.615 367.335C109.399 367 109.156 366.66 108.886 366.315C108.616 365.958 108.368 365.597 108.141 365.23C107.925 364.863 107.818 364.49 107.818 364.112C107.818 363.648 107.942 363.162 108.19 362.655C108.438 362.137 108.757 361.667 109.145 361.246C109.534 360.814 109.971 360.458 110.457 360.177C110.943 359.897 111.423 359.756 111.898 359.756C112.276 359.756 112.6 359.87 112.87 360.097C113.14 360.323 113.275 360.631 113.275 361.02Z" fill="white"/>
<path d="M88.1408 339.058C88.1408 339.705 88.0976 340.348 88.0112 340.985C87.9248 341.611 87.8223 342.232 87.7035 342.847C87.6712 343.009 87.6226 343.273 87.5578 343.64C87.493 343.997 87.4121 344.396 87.3149 344.839C87.2286 345.281 87.1206 345.74 86.9911 346.215C86.8615 346.69 86.7158 347.122 86.5538 347.51C86.4027 347.899 86.23 348.223 86.0357 348.482C85.8521 348.73 85.6524 348.854 85.4365 348.854C85.2206 348.854 85.0101 348.746 84.805 348.531C84.6107 348.315 84.4272 348.045 84.2544 347.721C84.0925 347.386 83.9414 347.014 83.801 346.604C83.6607 346.193 83.5366 345.799 83.4286 345.422C83.3314 345.033 83.2451 344.682 83.1695 344.369C83.1047 344.045 83.0562 343.802 83.0238 343.64C82.9806 343.781 82.9104 344.007 82.8133 344.32C82.7269 344.623 82.6136 344.968 82.4732 345.357C82.3329 345.735 82.1763 346.123 82.0036 346.523C81.8309 346.922 81.6474 347.289 81.4531 347.624C81.2695 347.958 81.0752 348.234 80.8701 348.45C80.665 348.666 80.4599 348.773 80.2548 348.773C79.9849 348.773 79.7474 348.655 79.5423 348.417C79.3372 348.18 79.1645 347.877 79.0241 347.51C78.8838 347.133 78.765 346.717 78.6679 346.264C78.5707 345.799 78.4951 345.346 78.4412 344.903C78.3872 344.45 78.344 344.029 78.3116 343.64C78.2792 343.252 78.2576 342.944 78.2469 342.717C78.2145 342.199 78.1821 341.692 78.1497 341.195C78.1281 340.699 78.1173 340.191 78.1173 339.673C78.1173 339.489 78.1227 339.241 78.1335 338.928C78.1443 338.604 78.1821 338.291 78.2469 337.989C78.3224 337.676 78.4304 337.406 78.5707 337.179C78.7218 336.942 78.9378 336.812 79.2184 336.791C79.4559 336.78 79.661 336.877 79.8338 337.082C80.0065 337.287 80.1522 337.563 80.271 337.908C80.3897 338.243 80.4815 338.62 80.5463 339.041C80.6218 339.452 80.6758 339.851 80.7082 340.24C80.7514 340.628 80.7784 340.985 80.7891 341.309C80.7999 341.632 80.7999 341.87 80.7891 342.021L80.773 342.442C80.8053 342.302 80.8593 342.08 80.9349 341.778C81.0212 341.476 81.1238 341.136 81.2425 340.758C81.3613 340.369 81.4854 339.975 81.615 339.576C81.7553 339.166 81.9011 338.793 82.0522 338.459C82.2033 338.124 82.3545 337.849 82.5056 337.633C82.6567 337.406 82.8025 337.287 82.9428 337.276C83.1263 337.266 83.2991 337.374 83.461 337.6C83.6337 337.827 83.7848 338.124 83.9144 338.491C84.0547 338.847 84.1789 339.247 84.2868 339.689C84.3948 340.132 84.4865 340.564 84.5621 340.985C84.6485 341.395 84.7132 341.767 84.7564 342.102C84.7996 342.437 84.832 342.674 84.8536 342.814C84.8644 342.642 84.8914 342.372 84.9345 342.005C84.9777 341.627 85.0371 341.211 85.1127 340.758C85.1882 340.294 85.28 339.824 85.3879 339.349C85.5067 338.863 85.6416 338.421 85.7928 338.021C85.9439 337.622 86.1166 337.298 86.3109 337.05C86.5053 336.791 86.7212 336.661 86.9587 336.661C87.2286 336.661 87.4445 336.753 87.6064 336.936C87.7683 337.109 87.8871 337.325 87.9626 337.584C88.0382 337.832 88.0868 338.097 88.1084 338.378C88.13 338.647 88.1408 338.874 88.1408 339.058Z" fill="white"/>
<path d="M127.402 286.15C127.402 288.137 126.674 289.716 125.218 290.887C123.762 292.058 121.914 292.619 119.674 292.619C117.434 292.619 115.642 292.058 114.018 290.989C112.506 289.817 111.722 288.239 111.722 286.252C111.722 284.266 112.394 282.432 113.794 281.006C115.25 279.58 117.154 278.867 119.562 278.867C121.97 278.867 123.762 279.58 125.218 281.006C126.674 282.381 127.402 284.113 127.402 286.15ZM105.114 286.66C105.114 288.646 104.33 290.225 102.818 291.396C101.362 292.568 99.5144 293.128 97.2744 293.128C95.0344 293.128 93.2984 292.568 91.7304 291.498C90.2184 290.327 89.4344 288.748 89.4344 286.762C89.4344 284.775 90.1064 282.942 91.5064 281.516C92.9064 280.089 94.7544 279.376 97.1624 279.376C99.5704 279.376 101.362 280.089 102.818 281.516C104.33 282.891 105.114 284.622 105.114 286.66Z" fill="white"/>
<path d="M248.501 431.668C248.501 431.681 248.494 431.885 248.481 432.279C248.481 432.672 248.474 433.197 248.461 433.854C248.461 434.51 248.455 435.271 248.442 436.137C248.442 437.004 248.435 437.922 248.422 438.894C248.409 439.852 248.396 440.836 248.382 441.847C248.382 442.857 248.376 443.835 248.363 444.78C248.363 445.712 248.356 446.585 248.343 447.399C248.343 448.212 248.343 448.908 248.343 449.485V450.667C248.527 450.693 248.704 450.706 248.875 450.706C249.058 450.706 249.242 450.706 249.426 450.706C249.977 450.706 250.633 450.654 251.395 450.549C252.169 450.444 252.996 450.22 253.875 449.879C254.768 449.525 255.693 449.02 256.651 448.363C257.622 447.694 258.574 446.795 259.506 445.666C260.622 444.327 261.416 442.989 261.888 441.65C262.374 440.311 262.617 438.972 262.617 437.634C262.617 436.505 262.498 435.527 262.262 434.7C262.026 433.873 261.691 433.178 261.258 432.613C260.838 432.036 260.333 431.57 259.742 431.215C259.165 430.861 258.522 430.585 257.813 430.389C257.117 430.192 256.369 430.06 255.568 429.995C254.781 429.929 253.974 429.896 253.147 429.896C252.556 429.896 251.874 429.969 251.099 430.113C250.325 430.257 249.524 430.441 248.697 430.664C247.884 430.887 247.077 431.124 246.276 431.373C245.475 431.622 244.747 431.859 244.091 432.082C243.447 432.305 242.909 432.489 242.476 432.633C242.043 432.777 241.781 432.85 241.689 432.85C241.557 432.718 241.446 432.594 241.354 432.475C241.275 432.384 241.203 432.298 241.137 432.22C241.072 432.141 241.039 432.095 241.039 432.082C241.039 432.055 241.059 432.023 241.098 431.983C241.124 431.957 241.17 431.924 241.236 431.885C241.302 431.845 241.4 431.813 241.531 431.786C241.492 431.708 241.466 431.655 241.452 431.629C241.452 431.603 241.452 431.576 241.452 431.55C241.452 431.511 241.459 431.471 241.472 431.432C241.485 431.393 241.544 431.353 241.649 431.314C241.452 431.222 241.315 431.143 241.236 431.078C241.157 430.999 241.105 430.94 241.078 430.9C241.065 430.861 241.065 430.835 241.078 430.822C241.092 430.809 241.098 430.809 241.098 430.822C241.098 430.782 241.124 430.756 241.177 430.743C241.229 430.73 241.269 430.69 241.295 430.625C241.295 430.612 241.334 430.526 241.413 430.369C241.492 430.211 241.656 430.028 241.905 429.818C242.168 429.608 242.535 429.391 243.008 429.168C243.48 428.945 244.117 428.748 244.917 428.577C245.193 428.512 245.567 428.426 246.04 428.321C246.512 428.203 247.057 428.092 247.674 427.987C248.304 427.882 248.986 427.79 249.721 427.711C250.456 427.632 251.224 427.593 252.025 427.593C254.217 427.593 256.159 427.921 257.852 428.577C259.545 429.22 260.963 430.087 262.105 431.176C263.26 432.265 264.132 433.525 264.723 434.956C265.314 436.387 265.609 437.883 265.609 439.445C265.609 440.364 265.484 441.309 265.235 442.28C264.986 443.251 264.625 444.209 264.152 445.154C263.693 446.099 263.135 447.011 262.479 447.891C261.822 448.77 261.087 449.577 260.274 450.312C259.46 451.034 258.581 451.671 257.636 452.222C256.704 452.773 255.719 453.193 254.682 453.482C253.646 453.771 252.701 453.974 251.847 454.092C251.007 454.197 250.233 454.25 249.524 454.25C248.579 454.25 247.812 454.197 247.221 454.092C246.63 453.974 246.171 453.85 245.843 453.718C245.528 453.574 245.311 453.436 245.193 453.305C245.088 453.174 245.036 453.088 245.036 453.049C244.957 452.97 244.917 452.845 244.917 452.675C244.931 452.36 244.963 451.454 245.016 449.958C245.042 449.328 245.068 448.534 245.095 447.576C245.134 446.618 245.173 445.463 245.213 444.111C245.265 442.746 245.324 441.151 245.39 439.327C245.469 437.502 245.554 435.409 245.646 433.046C245.646 432.771 245.718 432.58 245.862 432.475C246.02 432.37 246.21 432.292 246.433 432.239C246.657 432.187 246.893 432.141 247.142 432.101C247.405 432.049 247.634 431.944 247.831 431.786C247.91 431.721 247.995 431.668 248.087 431.629C248.192 431.576 248.277 431.55 248.343 431.55C248.448 431.55 248.501 431.59 248.501 431.668ZM273.445 429.325C273.458 429.588 273.445 429.883 273.405 430.211C273.379 430.526 273.327 430.835 273.248 431.137C273.182 431.439 273.084 431.708 272.952 431.944C272.834 432.18 272.69 432.344 272.519 432.436C272.086 432.659 271.706 432.771 271.377 432.771C271.115 432.771 270.885 432.712 270.688 432.594C270.505 432.462 270.321 432.318 270.137 432.16C269.875 431.95 269.652 431.675 269.468 431.334C269.297 430.992 269.212 430.664 269.212 430.349C269.212 430.1 269.251 429.798 269.33 429.444C269.422 429.076 269.533 428.722 269.665 428.38C269.796 428.039 269.934 427.731 270.078 427.455C270.236 427.166 270.387 426.97 270.531 426.865C270.754 426.681 270.957 426.582 271.141 426.569C271.338 426.543 271.496 426.55 271.614 426.589C271.902 426.655 272.158 426.74 272.382 426.845C272.605 426.937 272.788 427.088 272.933 427.298C273.09 427.495 273.208 427.757 273.287 428.085C273.366 428.413 273.418 428.827 273.445 429.325ZM271.83 438.126C271.896 438.191 271.942 438.408 271.968 438.775C272.007 439.143 272.027 439.622 272.027 440.213C272.027 440.606 272.021 441.033 272.007 441.492C271.994 441.952 271.975 442.424 271.948 442.91C271.935 443.395 271.916 443.888 271.889 444.386C271.863 444.872 271.843 445.338 271.83 445.784C271.791 446.519 271.765 447.202 271.752 447.832C271.752 448.449 271.752 449.046 271.752 449.623C271.752 450.385 271.758 451.08 271.771 451.71C271.784 452.34 271.791 452.865 271.791 453.285C271.791 453.745 271.771 454.099 271.732 454.348C271.706 454.585 271.64 454.716 271.535 454.742C271.417 454.768 271.318 454.827 271.24 454.919C271.161 454.998 271.089 455.077 271.023 455.155C270.957 455.234 270.879 455.3 270.787 455.352C270.708 455.418 270.61 455.438 270.492 455.411C270.426 455.398 270.314 455.339 270.157 455.234C269.999 455.129 269.829 455.005 269.645 454.86C269.474 454.703 269.31 454.525 269.153 454.329C268.995 454.132 268.89 453.928 268.838 453.718C268.812 453.613 268.785 453.403 268.759 453.088C268.746 452.773 268.733 452.393 268.72 451.946C268.707 451.5 268.693 451.008 268.68 450.47C268.667 449.919 268.654 449.367 268.641 448.816C268.641 448.252 268.641 447.7 268.641 447.162C268.641 446.624 268.641 446.139 268.641 445.705C268.641 445.036 268.661 444.354 268.7 443.658C268.752 442.962 268.805 442.313 268.857 441.709C268.923 441.105 268.982 440.58 269.035 440.134C269.1 439.675 269.146 439.353 269.172 439.169C269.225 438.854 269.277 438.611 269.33 438.441C269.396 438.257 269.461 438.126 269.527 438.047C269.606 437.968 269.678 437.922 269.743 437.909C269.822 437.883 269.901 437.863 269.98 437.85C270.137 437.824 270.314 437.817 270.511 437.83C270.721 437.844 270.918 437.863 271.102 437.89C271.286 437.916 271.443 437.955 271.574 438.008C271.719 438.047 271.804 438.086 271.83 438.126ZM280.729 431.865C280.729 431.944 280.716 432.154 280.69 432.495C280.663 432.823 280.624 433.263 280.572 433.814C280.532 434.365 280.48 435.009 280.414 435.744C280.348 436.465 280.283 437.246 280.217 438.086C281.044 437.981 281.825 437.903 282.56 437.85C283.308 437.785 283.938 437.752 284.45 437.752C284.621 437.752 284.772 437.785 284.903 437.85C285.034 437.916 285.139 437.995 285.218 438.086C285.31 438.165 285.382 438.257 285.434 438.362C285.487 438.454 285.52 438.533 285.533 438.598C285.533 438.664 285.539 438.73 285.552 438.795C285.566 438.848 285.572 438.907 285.572 438.972C285.572 439.235 285.454 439.497 285.218 439.76C284.995 440.022 284.653 440.186 284.194 440.252L280.001 440.705C279.935 441.65 279.876 442.621 279.823 443.619C279.771 444.616 279.718 445.614 279.666 446.611C279.627 447.595 279.594 448.567 279.567 449.525C279.541 450.483 279.528 451.389 279.528 452.242C279.528 452.793 279.541 453.239 279.567 453.58C279.594 453.922 279.607 454.145 279.607 454.25C279.607 454.473 279.561 454.696 279.469 454.919C279.39 455.129 279.292 455.32 279.174 455.49C279.069 455.674 278.951 455.818 278.819 455.923C278.701 456.041 278.603 456.1 278.524 456.1C278.052 456.1 277.677 455.95 277.402 455.648C277.126 455.359 276.916 454.965 276.772 454.466C276.641 453.968 276.555 453.397 276.516 452.754C276.477 452.11 276.457 451.441 276.457 450.745C276.457 449.105 276.503 447.464 276.595 445.824C276.687 444.17 276.818 442.582 276.988 441.059L274.527 441.355C274.488 441.355 274.449 441.361 274.409 441.374C274.37 441.387 274.324 441.394 274.272 441.394C274.022 441.394 273.825 441.335 273.681 441.217C273.523 441.099 273.405 440.961 273.327 440.803C273.248 440.646 273.202 440.488 273.189 440.331C273.162 440.16 273.149 440.029 273.149 439.937C273.149 439.753 273.176 439.583 273.228 439.425C273.281 439.268 273.379 439.169 273.523 439.13C273.799 439.025 274.278 438.913 274.961 438.795C275.656 438.664 276.437 438.533 277.303 438.401C277.448 437.338 277.592 436.367 277.737 435.488C277.894 434.595 278.045 433.827 278.189 433.184C278.334 432.528 278.465 432.023 278.583 431.668C278.714 431.301 278.826 431.117 278.918 431.117C278.944 431.117 278.977 431.124 279.016 431.137C279.056 431.15 279.088 431.156 279.115 431.156C279.193 431.156 279.252 431.117 279.292 431.038C279.344 430.946 279.436 430.9 279.567 430.9C279.686 430.9 279.81 430.94 279.942 431.019C280.086 431.084 280.211 431.17 280.316 431.275C280.434 431.38 280.532 431.491 280.611 431.609C280.69 431.714 280.729 431.8 280.729 431.865ZM296.44 428.735C296.44 428.919 296.427 429.28 296.4 429.818C296.374 430.356 296.341 431.005 296.302 431.767C296.262 432.515 296.217 433.342 296.164 434.247C296.125 435.14 296.079 436.039 296.026 436.945C295.974 437.837 295.928 438.703 295.888 439.543C295.849 440.383 295.823 441.118 295.81 441.748C295.783 442.129 295.764 442.549 295.751 443.008C295.751 443.468 295.751 443.96 295.751 444.485C295.751 445.18 295.751 445.909 295.751 446.67C295.764 447.418 295.777 448.16 295.79 448.895C295.803 449.63 295.816 450.339 295.829 451.021C295.856 451.69 295.875 452.294 295.888 452.832C295.902 453.37 295.908 453.823 295.908 454.191C295.921 454.545 295.928 454.768 295.928 454.86C295.928 455.044 295.895 455.182 295.829 455.274C295.777 455.379 295.705 455.444 295.613 455.47C295.534 455.51 295.449 455.516 295.357 455.49C295.265 455.477 295.186 455.451 295.121 455.411C295.042 455.372 294.976 455.326 294.924 455.274C294.884 455.221 294.852 455.182 294.825 455.155C294.799 455.129 294.773 455.123 294.747 455.136C294.733 455.149 294.72 455.201 294.707 455.293C294.668 455.635 294.589 455.89 294.471 456.061C294.366 456.232 294.248 456.343 294.117 456.396C293.998 456.461 293.887 456.481 293.782 456.455C293.677 456.429 293.611 456.383 293.585 456.317C293.559 456.251 293.513 456.212 293.447 456.199C293.395 456.186 293.336 456.173 293.27 456.16C293.204 456.16 293.139 456.14 293.073 456.1C293.021 456.074 292.988 456.009 292.975 455.904C292.87 455.457 292.804 454.893 292.778 454.21C292.752 453.515 292.738 452.734 292.738 451.868C292.738 451.12 292.745 450.312 292.758 449.446C292.771 448.58 292.778 447.694 292.778 446.788C292.778 446.263 292.778 445.745 292.778 445.233C292.778 444.708 292.765 444.176 292.738 443.638V442.398C292.738 441.335 292.765 440.272 292.817 439.209C292.87 438.132 292.935 437.102 293.014 436.118C293.093 435.133 293.178 434.208 293.27 433.342C293.362 432.475 293.441 431.708 293.506 431.038C293.572 430.369 293.624 429.824 293.664 429.404C293.703 428.984 293.716 428.722 293.703 428.617C293.69 428.525 293.697 428.459 293.723 428.42C293.762 428.38 293.808 428.361 293.861 428.361C293.926 428.348 293.992 428.341 294.057 428.341C294.123 428.328 294.182 428.308 294.235 428.282C294.327 428.23 294.399 428.216 294.451 428.243C294.517 428.256 294.569 428.282 294.609 428.321C294.648 428.361 294.681 428.407 294.707 428.459C294.747 428.499 294.799 428.518 294.865 428.518C294.943 428.505 295.002 428.485 295.042 428.459C295.094 428.42 295.134 428.387 295.16 428.361C295.199 428.321 295.232 428.289 295.258 428.262C295.298 428.236 295.344 428.23 295.396 428.243C295.501 428.269 295.6 428.289 295.692 428.302C295.797 428.302 295.849 428.282 295.849 428.243C295.875 428.138 295.915 428.092 295.967 428.105C296.02 428.105 296.085 428.138 296.164 428.203C296.243 428.269 296.308 428.341 296.361 428.42C296.413 428.485 296.44 428.59 296.44 428.735ZM304.393 429.325C304.407 429.588 304.393 429.883 304.354 430.211C304.328 430.526 304.275 430.835 304.197 431.137C304.131 431.439 304.032 431.708 303.901 431.944C303.783 432.18 303.639 432.344 303.468 432.436C303.035 432.659 302.654 432.771 302.326 432.771C302.064 432.771 301.834 432.712 301.637 432.594C301.453 432.462 301.27 432.318 301.086 432.16C300.823 431.95 300.6 431.675 300.417 431.334C300.246 430.992 300.161 430.664 300.161 430.349C300.161 430.1 300.2 429.798 300.279 429.444C300.371 429.076 300.482 428.722 300.613 428.38C300.745 428.039 300.882 427.731 301.027 427.455C301.184 427.166 301.335 426.97 301.48 426.865C301.703 426.681 301.906 426.582 302.09 426.569C302.287 426.543 302.444 426.55 302.562 426.589C302.851 426.655 303.107 426.74 303.33 426.845C303.553 426.937 303.737 427.088 303.882 427.298C304.039 427.495 304.157 427.757 304.236 428.085C304.315 428.413 304.367 428.827 304.393 429.325ZM302.779 438.126C302.845 438.191 302.891 438.408 302.917 438.775C302.956 439.143 302.976 439.622 302.976 440.213C302.976 440.606 302.969 441.033 302.956 441.492C302.943 441.952 302.923 442.424 302.897 442.91C302.884 443.395 302.864 443.888 302.838 444.386C302.812 444.872 302.792 445.338 302.779 445.784C302.74 446.519 302.713 447.202 302.7 447.832C302.7 448.449 302.7 449.046 302.7 449.623C302.7 450.385 302.707 451.08 302.72 451.71C302.733 452.34 302.74 452.865 302.74 453.285C302.74 453.745 302.72 454.099 302.681 454.348C302.654 454.585 302.589 454.716 302.484 454.742C302.366 454.768 302.267 454.827 302.188 454.919C302.11 454.998 302.037 455.077 301.972 455.155C301.906 455.234 301.827 455.3 301.736 455.352C301.657 455.418 301.558 455.438 301.44 455.411C301.375 455.398 301.263 455.339 301.106 455.234C300.948 455.129 300.777 455.005 300.594 454.86C300.423 454.703 300.259 454.525 300.102 454.329C299.944 454.132 299.839 453.928 299.787 453.718C299.76 453.613 299.734 453.403 299.708 453.088C299.695 452.773 299.682 452.393 299.668 451.946C299.655 451.5 299.642 451.008 299.629 450.47C299.616 449.919 299.603 449.367 299.59 448.816C299.59 448.252 299.59 447.7 299.59 447.162C299.59 446.624 299.59 446.139 299.59 445.705C299.59 445.036 299.609 444.354 299.649 443.658C299.701 442.962 299.754 442.313 299.806 441.709C299.872 441.105 299.931 440.58 299.983 440.134C300.049 439.675 300.095 439.353 300.121 439.169C300.174 438.854 300.226 438.611 300.279 438.441C300.344 438.257 300.41 438.126 300.476 438.047C300.554 437.968 300.627 437.922 300.692 437.909C300.771 437.883 300.85 437.863 300.928 437.85C301.086 437.824 301.263 437.817 301.46 437.83C301.67 437.844 301.867 437.863 302.051 437.89C302.234 437.916 302.392 437.955 302.523 438.008C302.667 438.047 302.753 438.086 302.779 438.126ZM319.632 439.405C319.592 439.484 319.481 439.72 319.297 440.114C319.113 440.508 318.877 441.007 318.588 441.61C318.312 442.201 317.991 442.884 317.623 443.658C317.269 444.419 316.895 445.213 316.501 446.04C316.121 446.867 315.733 447.707 315.34 448.56C314.946 449.413 314.565 450.227 314.198 451.001C313.843 451.763 313.515 452.465 313.213 453.108C312.925 453.751 312.682 454.283 312.485 454.703C312.419 454.821 312.341 454.939 312.249 455.057C312.17 455.175 312.085 455.28 311.993 455.372C311.901 455.464 311.802 455.536 311.697 455.589C311.606 455.654 311.52 455.68 311.442 455.667C311.363 455.667 311.271 455.654 311.166 455.628C311.074 455.602 310.989 455.589 310.91 455.589C310.871 455.602 310.838 455.628 310.812 455.667C310.785 455.707 310.752 455.74 310.713 455.766C310.687 455.792 310.647 455.805 310.595 455.805C310.556 455.805 310.503 455.772 310.437 455.707C310.385 455.654 310.326 455.615 310.26 455.589C310.195 455.575 310.129 455.562 310.063 455.549C310.011 455.536 309.958 455.516 309.906 455.49C309.867 455.464 309.84 455.411 309.827 455.333C309.788 455.136 309.702 454.86 309.571 454.506C309.453 454.138 309.282 453.62 309.059 452.95C308.836 452.268 308.554 451.402 308.213 450.352C307.885 449.302 307.497 447.996 307.051 446.434C306.854 445.751 306.638 445.043 306.402 444.308C306.165 443.56 305.936 442.864 305.712 442.221C305.502 441.578 305.312 441.02 305.142 440.547C304.984 440.062 304.879 439.74 304.827 439.583C304.708 439.281 304.669 439.077 304.708 438.972C304.735 438.867 304.84 438.828 305.023 438.854C305.142 438.88 305.279 438.913 305.437 438.953C305.594 438.979 305.745 439.012 305.89 439.051C306.047 439.09 306.185 439.13 306.303 439.169C306.434 439.209 306.533 439.235 306.598 439.248C306.651 439.274 306.684 439.274 306.697 439.248C306.723 439.222 306.743 439.195 306.756 439.169C306.782 439.13 306.808 439.097 306.835 439.071C306.874 439.031 306.933 439.012 307.012 439.012C307.091 439.012 307.143 439.005 307.169 438.992C307.209 438.966 307.242 438.946 307.268 438.933C307.294 438.907 307.327 438.887 307.366 438.874C307.419 438.848 307.497 438.828 307.602 438.815C307.826 438.815 307.97 438.841 308.036 438.894C308.114 438.933 308.173 439.025 308.213 439.169C308.226 439.209 308.285 439.465 308.39 439.937C308.508 440.41 308.659 441.013 308.843 441.748C309.04 442.47 309.256 443.284 309.492 444.19C309.742 445.082 309.998 445.968 310.26 446.847C310.536 447.727 310.812 448.554 311.087 449.328C311.376 450.102 311.652 450.732 311.914 451.218C312.032 450.969 312.203 450.601 312.426 450.115C312.662 449.63 312.925 449.072 313.213 448.442C313.515 447.812 313.837 447.136 314.178 446.414C314.532 445.679 314.88 444.951 315.222 444.229C315.576 443.494 315.911 442.785 316.226 442.103C316.554 441.407 316.849 440.784 317.112 440.232C317.387 439.681 317.61 439.228 317.781 438.874C317.965 438.506 318.083 438.283 318.135 438.205C318.188 438.113 318.227 438.06 318.253 438.047C318.293 438.021 318.332 438.014 318.372 438.027C318.411 438.04 318.45 438.067 318.49 438.106C318.529 438.145 318.582 438.178 318.647 438.205C318.765 438.27 318.89 438.349 319.021 438.441C319.152 438.533 319.271 438.631 319.376 438.736C319.494 438.841 319.579 438.953 319.632 439.071C319.684 439.189 319.684 439.3 319.632 439.405ZM332.94 439.543C332.98 439.622 332.999 439.701 332.999 439.78C333.012 439.858 333.019 439.95 333.019 440.055C333.019 440.475 332.796 440.915 332.35 441.374C331.917 441.834 331.227 442.254 330.282 442.634C330.086 442.713 329.908 442.752 329.751 442.752C329.554 442.752 329.383 442.7 329.239 442.595C329.108 442.477 329.042 442.359 329.042 442.24C329.042 442.162 329.088 442.07 329.18 441.965C329.285 441.86 329.39 441.755 329.495 441.65C329.613 441.545 329.718 441.446 329.81 441.355C329.915 441.263 329.967 441.19 329.967 441.138C329.967 441.033 329.882 440.98 329.712 440.98C329.449 440.98 329.114 441.059 328.707 441.217C328.301 441.361 327.867 441.558 327.408 441.807C326.962 442.044 326.502 442.306 326.03 442.595C325.571 442.87 325.157 443.146 324.79 443.422C324.422 443.684 324.12 443.92 323.884 444.13C323.661 444.34 323.549 444.491 323.549 444.583C323.549 444.636 323.602 444.662 323.707 444.662H324.278C324.632 444.662 325.085 444.682 325.636 444.721C326.201 444.76 326.791 444.839 327.408 444.957C328.025 445.062 328.642 445.22 329.259 445.43C329.889 445.627 330.447 445.896 330.932 446.237C331.431 446.578 331.838 446.992 332.153 447.477C332.468 447.963 332.625 448.54 332.625 449.21C332.625 449.551 332.566 449.919 332.448 450.312C332.343 450.693 332.146 451.087 331.857 451.494C331.582 451.887 331.201 452.294 330.716 452.714C330.23 453.121 329.613 453.528 328.865 453.935C327.736 454.539 326.68 454.985 325.695 455.274C324.724 455.562 323.845 455.707 323.057 455.707C322.033 455.707 321.226 455.477 320.636 455.018C320.045 454.558 319.75 453.902 319.75 453.049C319.75 452.419 319.868 451.881 320.104 451.435C320.353 450.988 320.642 450.621 320.97 450.332C321.298 450.03 321.627 449.814 321.955 449.682C322.283 449.538 322.532 449.459 322.703 449.446C322.782 449.446 322.847 449.44 322.9 449.426C322.965 449.413 323.031 449.407 323.097 449.407C323.215 449.407 323.274 449.479 323.274 449.623V449.82C323.274 449.899 323.293 449.971 323.333 450.037C323.372 450.089 323.392 450.148 323.392 450.214C323.392 450.293 323.293 450.411 323.097 450.568C322.913 450.726 322.709 450.91 322.486 451.12C322.263 451.33 322.053 451.553 321.856 451.789C321.672 452.025 321.581 452.255 321.581 452.478C321.581 452.74 321.791 452.872 322.211 452.872C322.736 452.872 323.287 452.773 323.864 452.576C324.455 452.366 325.026 452.104 325.577 451.789C326.142 451.474 326.673 451.12 327.172 450.726C327.684 450.319 328.13 449.925 328.511 449.545C328.891 449.164 329.193 448.81 329.416 448.481C329.639 448.14 329.751 447.871 329.751 447.674C329.751 447.438 329.613 447.248 329.337 447.103C329.075 446.959 328.707 446.841 328.235 446.749C327.776 446.657 327.237 446.598 326.621 446.572C326.004 446.532 325.354 446.513 324.672 446.513C323.963 446.513 323.372 446.545 322.9 446.611C322.44 446.677 322.158 446.71 322.053 446.71C321.974 446.71 321.843 446.703 321.659 446.69C321.489 446.664 321.312 446.605 321.128 446.513C320.957 446.408 320.806 446.257 320.675 446.06C320.544 445.863 320.478 445.581 320.478 445.213C320.478 444.964 320.531 444.682 320.636 444.367C320.754 444.052 320.951 443.717 321.226 443.363C321.515 442.995 321.902 442.601 322.388 442.181C322.887 441.761 323.517 441.322 324.278 440.862C325.078 440.377 325.827 439.983 326.522 439.681C327.231 439.366 327.867 439.123 328.432 438.953C329.009 438.782 329.515 438.67 329.948 438.618C330.381 438.552 330.722 438.52 330.972 438.52C331.562 438.52 332.002 438.598 332.291 438.756C332.579 438.9 332.796 439.163 332.94 439.543ZM355.876 447.832C355.876 447.976 355.883 448.147 355.896 448.344C355.909 448.54 355.916 448.764 355.916 449.013C355.916 449.328 355.87 449.722 355.778 450.194C355.686 450.654 355.535 451.139 355.325 451.651C355.128 452.163 354.859 452.675 354.518 453.187C354.177 453.699 353.757 454.158 353.258 454.565C352.759 454.972 352.168 455.3 351.486 455.549C350.817 455.812 350.049 455.943 349.182 455.943C348.408 455.943 347.614 455.792 346.8 455.49C346 455.201 345.265 454.749 344.595 454.132C343.939 453.502 343.394 452.708 342.961 451.75C342.541 450.778 342.331 449.623 342.331 448.285C342.331 447.445 342.436 446.618 342.646 445.804C342.869 444.99 343.158 444.222 343.512 443.5C343.88 442.779 344.307 442.116 344.792 441.512C345.291 440.895 345.809 440.37 346.347 439.937C346.899 439.491 347.463 439.143 348.041 438.894C348.631 438.644 349.202 438.52 349.753 438.52C350.712 438.52 351.499 438.67 352.116 438.972C352.746 439.274 353.245 439.648 353.612 440.095C353.98 440.541 354.236 441.02 354.38 441.532C354.537 442.03 354.616 442.483 354.616 442.89C354.616 443.284 354.518 443.737 354.321 444.249C354.137 444.747 353.829 445.226 353.396 445.686C352.962 446.132 352.398 446.513 351.702 446.828C351.007 447.13 350.154 447.28 349.143 447.28C348.605 447.28 348.119 447.208 347.686 447.064C347.266 446.906 346.892 446.716 346.564 446.493C346.236 446.257 345.954 446.007 345.717 445.745C345.494 445.469 345.304 445.213 345.147 444.977C344.91 445.791 344.792 446.742 344.792 447.832C344.792 448.58 344.897 449.256 345.107 449.86C345.33 450.45 345.632 450.955 346.013 451.375C346.393 451.795 346.846 452.117 347.371 452.34C347.896 452.563 348.474 452.675 349.104 452.675C349.891 452.675 350.58 452.544 351.171 452.281C351.762 452.005 352.273 451.664 352.707 451.257C353.153 450.85 353.533 450.411 353.848 449.938C354.177 449.453 354.459 449.013 354.695 448.619C354.931 448.212 355.135 447.878 355.305 447.615C355.489 447.353 355.666 447.228 355.837 447.241C355.916 447.241 355.955 447.307 355.955 447.438C355.955 447.504 355.948 447.569 355.935 447.635C355.922 447.7 355.902 447.766 355.876 447.832ZM349.95 440.508C349.714 440.508 349.406 440.56 349.025 440.665C348.657 440.757 348.264 440.928 347.844 441.177C347.437 441.427 347.03 441.768 346.623 442.201C346.216 442.621 345.862 443.159 345.56 443.815C345.744 443.724 345.901 443.645 346.032 443.579C346.177 443.514 346.275 443.481 346.328 443.481C346.354 443.481 346.393 443.507 346.446 443.56C346.748 444.071 347.122 444.439 347.568 444.662C348.027 444.872 348.539 444.977 349.104 444.977C349.55 444.977 349.931 444.905 350.246 444.76C350.574 444.603 350.843 444.406 351.053 444.17C351.263 443.934 351.414 443.678 351.506 443.402C351.597 443.113 351.643 442.831 351.643 442.555C351.643 441.965 351.492 441.479 351.191 441.099C350.889 440.705 350.475 440.508 349.95 440.508ZM371.961 439.405C371.922 439.484 371.81 439.72 371.626 440.114C371.442 440.508 371.206 441.007 370.917 441.61C370.642 442.201 370.32 442.884 369.953 443.658C369.598 444.419 369.224 445.213 368.831 446.04C368.45 446.867 368.063 447.707 367.669 448.56C367.275 449.413 366.895 450.227 366.527 451.001C366.173 451.763 365.845 452.465 365.543 453.108C365.254 453.751 365.011 454.283 364.814 454.703C364.749 454.821 364.67 454.939 364.578 455.057C364.499 455.175 364.414 455.28 364.322 455.372C364.23 455.464 364.132 455.536 364.027 455.589C363.935 455.654 363.85 455.68 363.771 455.667C363.692 455.667 363.6 455.654 363.495 455.628C363.403 455.602 363.318 455.589 363.239 455.589C363.2 455.602 363.167 455.628 363.141 455.667C363.115 455.707 363.082 455.74 363.042 455.766C363.016 455.792 362.977 455.805 362.924 455.805C362.885 455.805 362.832 455.772 362.767 455.707C362.714 455.654 362.655 455.615 362.59 455.589C362.524 455.575 362.458 455.562 362.393 455.549C362.34 455.536 362.288 455.516 362.235 455.49C362.196 455.464 362.17 455.411 362.157 455.333C362.117 455.136 362.032 454.86 361.901 454.506C361.782 454.138 361.612 453.62 361.389 452.95C361.166 452.268 360.883 451.402 360.542 450.352C360.214 449.302 359.827 447.996 359.381 446.434C359.184 445.751 358.967 445.043 358.731 444.308C358.495 443.56 358.265 442.864 358.042 442.221C357.832 441.578 357.642 441.02 357.471 440.547C357.313 440.062 357.208 439.74 357.156 439.583C357.038 439.281 356.998 439.077 357.038 438.972C357.064 438.867 357.169 438.828 357.353 438.854C357.471 438.88 357.609 438.913 357.766 438.953C357.924 438.979 358.075 439.012 358.219 439.051C358.377 439.09 358.514 439.13 358.632 439.169C358.764 439.209 358.862 439.235 358.928 439.248C358.98 439.274 359.013 439.274 359.026 439.248C359.052 439.222 359.072 439.195 359.085 439.169C359.112 439.13 359.138 439.097 359.164 439.071C359.203 439.031 359.262 439.012 359.341 439.012C359.42 439.012 359.472 439.005 359.499 438.992C359.538 438.966 359.571 438.946 359.597 438.933C359.623 438.907 359.656 438.887 359.696 438.874C359.748 438.848 359.827 438.828 359.932 438.815C360.155 438.815 360.299 438.841 360.365 438.894C360.444 438.933 360.503 439.025 360.542 439.169C360.555 439.209 360.614 439.465 360.719 439.937C360.837 440.41 360.988 441.013 361.172 441.748C361.369 442.47 361.586 443.284 361.822 444.19C362.071 445.082 362.327 445.968 362.59 446.847C362.865 447.727 363.141 448.554 363.417 449.328C363.705 450.102 363.981 450.732 364.243 451.218C364.362 450.969 364.532 450.601 364.755 450.115C364.992 449.63 365.254 449.072 365.543 448.442C365.845 447.812 366.166 447.136 366.507 446.414C366.862 445.679 367.21 444.951 367.551 444.229C367.905 443.494 368.24 442.785 368.555 442.103C368.883 441.407 369.178 440.784 369.441 440.232C369.717 439.681 369.94 439.228 370.11 438.874C370.294 438.506 370.412 438.283 370.465 438.205C370.517 438.113 370.557 438.06 370.583 438.047C370.622 438.021 370.662 438.014 370.701 438.027C370.74 438.04 370.78 438.067 370.819 438.106C370.858 438.145 370.911 438.178 370.977 438.205C371.095 438.27 371.219 438.349 371.351 438.441C371.482 438.533 371.6 438.631 371.705 438.736C371.823 438.841 371.908 438.953 371.961 439.071C372.013 439.189 372.013 439.3 371.961 439.405ZM385.919 447.832C385.919 447.976 385.926 448.147 385.939 448.344C385.952 448.54 385.959 448.764 385.959 449.013C385.959 449.328 385.913 449.722 385.821 450.194C385.729 450.654 385.578 451.139 385.368 451.651C385.171 452.163 384.902 452.675 384.561 453.187C384.22 453.699 383.8 454.158 383.301 454.565C382.802 454.972 382.212 455.3 381.529 455.549C380.86 455.812 380.092 455.943 379.226 455.943C378.451 455.943 377.657 455.792 376.843 455.49C376.043 455.201 375.308 454.749 374.638 454.132C373.982 453.502 373.437 452.708 373.004 451.75C372.584 450.778 372.374 449.623 372.374 448.285C372.374 447.445 372.479 446.618 372.689 445.804C372.912 444.99 373.201 444.222 373.556 443.5C373.923 442.779 374.35 442.116 374.835 441.512C375.334 440.895 375.852 440.37 376.391 439.937C376.942 439.491 377.506 439.143 378.084 438.894C378.674 438.644 379.245 438.52 379.797 438.52C380.755 438.52 381.542 438.67 382.159 438.972C382.789 439.274 383.288 439.648 383.655 440.095C384.023 440.541 384.279 441.02 384.423 441.532C384.581 442.03 384.659 442.483 384.659 442.89C384.659 443.284 384.561 443.737 384.364 444.249C384.18 444.747 383.872 445.226 383.439 445.686C383.006 446.132 382.441 446.513 381.746 446.828C381.05 447.13 380.197 447.28 379.186 447.28C378.648 447.28 378.162 447.208 377.729 447.064C377.309 446.906 376.935 446.716 376.607 446.493C376.279 446.257 375.997 446.007 375.761 445.745C375.537 445.469 375.347 445.213 375.19 444.977C374.953 445.791 374.835 446.742 374.835 447.832C374.835 448.58 374.94 449.256 375.15 449.86C375.373 450.45 375.675 450.955 376.056 451.375C376.437 451.795 376.889 452.117 377.414 452.34C377.939 452.563 378.517 452.675 379.147 452.675C379.934 452.675 380.623 452.544 381.214 452.281C381.805 452.005 382.317 451.664 382.75 451.257C383.196 450.85 383.577 450.411 383.892 449.938C384.22 449.453 384.502 449.013 384.738 448.619C384.974 448.212 385.178 447.878 385.348 447.615C385.532 447.353 385.709 447.228 385.88 447.241C385.959 447.241 385.998 447.307 385.998 447.438C385.998 447.504 385.992 447.569 385.978 447.635C385.965 447.7 385.946 447.766 385.919 447.832ZM379.993 440.508C379.757 440.508 379.449 440.56 379.068 440.665C378.701 440.757 378.307 440.928 377.887 441.177C377.48 441.427 377.073 441.768 376.666 442.201C376.259 442.621 375.905 443.159 375.603 443.815C375.787 443.724 375.944 443.645 376.076 443.579C376.22 443.514 376.318 443.481 376.371 443.481C376.397 443.481 376.437 443.507 376.489 443.56C376.791 444.071 377.165 444.439 377.611 444.662C378.071 444.872 378.582 444.977 379.147 444.977C379.593 444.977 379.974 444.905 380.289 444.76C380.617 444.603 380.886 444.406 381.096 444.17C381.306 443.934 381.457 443.678 381.549 443.402C381.641 443.113 381.687 442.831 381.687 442.555C381.687 441.965 381.536 441.479 381.234 441.099C380.932 440.705 380.518 440.508 379.993 440.508ZM400.626 454.171C400.626 454.329 400.567 454.506 400.449 454.703C400.344 454.886 400.186 454.978 399.976 454.978C399.858 454.978 399.766 454.945 399.701 454.88C399.635 454.814 399.569 454.781 399.504 454.781C399.412 454.781 399.32 454.814 399.228 454.88C399.149 454.945 399.012 454.978 398.815 454.978C398.552 454.978 398.322 454.886 398.126 454.703C397.942 454.506 397.791 454.263 397.673 453.974C397.555 453.672 397.463 453.351 397.397 453.01C397.345 452.655 397.318 452.327 397.318 452.025C397.318 451.435 397.338 450.765 397.377 450.017C397.43 449.256 397.482 448.481 397.535 447.694C397.601 446.893 397.653 446.099 397.692 445.312C397.745 444.524 397.771 443.796 397.771 443.126C397.771 442.234 397.712 441.538 397.594 441.04C397.476 440.541 397.266 440.291 396.964 440.291C396.675 440.331 396.38 440.58 396.078 441.04C395.776 441.499 395.468 442.09 395.153 442.811C394.838 443.52 394.529 444.327 394.227 445.233C393.926 446.125 393.63 447.044 393.342 447.989C393.066 448.921 392.803 449.833 392.554 450.726C392.305 451.605 392.082 452.393 391.885 453.088C391.688 453.784 391.517 454.348 391.373 454.781C391.228 455.201 391.13 455.411 391.077 455.411C390.972 455.411 390.894 455.385 390.841 455.333C390.789 455.293 390.736 455.247 390.684 455.195C390.644 455.142 390.592 455.09 390.526 455.037C390.461 454.998 390.362 454.978 390.231 454.978C390.113 454.978 390.034 454.991 389.995 455.018C389.955 455.044 389.909 455.077 389.857 455.116C389.804 455.155 389.739 455.188 389.66 455.215C389.581 455.241 389.443 455.254 389.247 455.254C389.01 455.254 388.774 455.195 388.538 455.077C388.315 454.959 388.203 454.775 388.203 454.525C388.203 454.368 388.229 454.046 388.282 453.561C388.334 453.062 388.393 452.458 388.459 451.75C388.538 451.028 388.617 450.227 388.695 449.348C388.787 448.455 388.866 447.536 388.932 446.591C389.01 445.646 389.076 444.701 389.128 443.756C389.181 442.811 389.207 441.912 389.207 441.059C389.207 440.639 389.201 440.252 389.187 439.898C389.174 439.53 389.168 439.182 389.168 438.854C389.168 438.775 389.207 438.736 389.286 438.736C389.443 438.736 389.562 438.769 389.64 438.835C389.732 438.887 389.798 438.946 389.837 439.012C389.877 439.077 389.896 439.143 389.896 439.209C389.909 439.261 389.922 439.287 389.936 439.287C389.975 439.287 390.021 439.268 390.073 439.228C390.126 439.176 390.178 439.123 390.231 439.071C390.297 439.018 390.356 438.972 390.408 438.933C390.461 438.88 390.507 438.854 390.546 438.854H390.743C390.94 438.854 391.077 438.828 391.156 438.775C391.235 438.71 391.287 438.644 391.314 438.579C391.353 438.5 391.379 438.434 391.392 438.382C391.406 438.316 391.445 438.283 391.511 438.283C391.55 438.283 391.602 438.316 391.668 438.382C391.747 438.434 391.819 438.533 391.885 438.677C391.963 438.808 392.029 438.985 392.082 439.209C392.134 439.432 392.16 439.701 392.16 440.016C392.16 440.436 392.141 440.967 392.101 441.61C392.075 442.254 392.036 442.943 391.983 443.678C391.944 444.4 391.904 445.135 391.865 445.883C391.826 446.618 391.799 447.287 391.786 447.891C391.931 447.326 392.101 446.703 392.298 446.02C392.508 445.325 392.744 444.623 393.007 443.914C393.282 443.205 393.578 442.516 393.893 441.847C394.208 441.164 394.549 440.56 394.917 440.035C395.284 439.51 395.671 439.09 396.078 438.775C396.485 438.447 396.912 438.283 397.358 438.283C398.067 438.283 398.644 438.415 399.09 438.677C399.55 438.94 399.911 439.3 400.173 439.76C400.436 440.219 400.613 440.757 400.705 441.374C400.81 441.991 400.862 442.654 400.862 443.363C400.862 443.966 400.836 444.603 400.783 445.272C400.731 445.929 400.672 446.591 400.606 447.261C400.554 447.917 400.501 448.567 400.449 449.21C400.409 449.853 400.39 450.457 400.39 451.021C400.39 451.717 400.429 452.347 400.508 452.911C400.587 453.462 400.626 453.882 400.626 454.171ZM409.761 431.865C409.761 431.944 409.748 432.154 409.722 432.495C409.695 432.823 409.656 433.263 409.603 433.814C409.564 434.365 409.512 435.009 409.446 435.744C409.38 436.465 409.315 437.246 409.249 438.086C410.076 437.981 410.857 437.903 411.592 437.85C412.34 437.785 412.97 437.752 413.482 437.752C413.652 437.752 413.803 437.785 413.935 437.85C414.066 437.916 414.171 437.995 414.25 438.086C414.342 438.165 414.414 438.257 414.466 438.362C414.519 438.454 414.552 438.533 414.565 438.598C414.565 438.664 414.571 438.73 414.584 438.795C414.597 438.848 414.604 438.907 414.604 438.972C414.604 439.235 414.486 439.497 414.25 439.76C414.027 440.022 413.685 440.186 413.226 440.252L409.032 440.705C408.967 441.65 408.908 442.621 408.855 443.619C408.803 444.616 408.75 445.614 408.698 446.611C408.658 447.595 408.626 448.567 408.599 449.525C408.573 450.483 408.56 451.389 408.56 452.242C408.56 452.793 408.573 453.239 408.599 453.58C408.626 453.922 408.639 454.145 408.639 454.25C408.639 454.473 408.593 454.696 408.501 454.919C408.422 455.129 408.324 455.32 408.206 455.49C408.101 455.674 407.982 455.818 407.851 455.923C407.733 456.041 407.635 456.1 407.556 456.1C407.083 456.1 406.709 455.95 406.434 455.648C406.158 455.359 405.948 454.965 405.804 454.466C405.672 453.968 405.587 453.397 405.548 452.754C405.508 452.11 405.489 451.441 405.489 450.745C405.489 449.105 405.535 447.464 405.627 445.824C405.718 444.17 405.85 442.582 406.02 441.059L403.559 441.355C403.52 441.355 403.481 441.361 403.441 441.374C403.402 441.387 403.356 441.394 403.303 441.394C403.054 441.394 402.857 441.335 402.713 441.217C402.555 441.099 402.437 440.961 402.358 440.803C402.28 440.646 402.234 440.488 402.221 440.331C402.194 440.16 402.181 440.029 402.181 439.937C402.181 439.753 402.207 439.583 402.26 439.425C402.312 439.268 402.411 439.169 402.555 439.13C402.831 439.025 403.31 438.913 403.992 438.795C404.688 438.664 405.469 438.533 406.335 438.401C406.48 437.338 406.624 436.367 406.768 435.488C406.926 434.595 407.077 433.827 407.221 433.184C407.366 432.528 407.497 432.023 407.615 431.668C407.746 431.301 407.858 431.117 407.95 431.117C407.976 431.117 408.009 431.124 408.048 431.137C408.087 431.15 408.12 431.156 408.147 431.156C408.225 431.156 408.284 431.117 408.324 431.038C408.376 430.946 408.468 430.9 408.599 430.9C408.717 430.9 408.842 430.94 408.973 431.019C409.118 431.084 409.242 431.17 409.347 431.275C409.466 431.38 409.564 431.491 409.643 431.609C409.722 431.714 409.761 431.8 409.761 431.865ZM430.452 438.972C430.413 439.038 430.275 439.261 430.039 439.642C429.816 440.009 429.527 440.482 429.173 441.059C428.818 441.624 428.412 442.273 427.952 443.008C427.506 443.73 427.04 444.485 426.554 445.272C426.082 446.047 425.609 446.821 425.137 447.595C424.664 448.37 424.218 449.098 423.798 449.781C423.391 450.45 423.037 451.047 422.735 451.572C422.433 452.097 422.21 452.491 422.066 452.754C421.921 453.016 421.718 453.423 421.455 453.974C421.193 454.525 420.891 455.155 420.55 455.864C420.208 456.586 419.841 457.36 419.447 458.187C419.067 459.014 418.679 459.841 418.286 460.668C417.905 461.508 417.531 462.315 417.163 463.09C416.809 463.877 416.487 464.579 416.199 465.196C415.923 465.813 415.693 466.318 415.51 466.712C415.326 467.119 415.221 467.362 415.195 467.44C415.077 467.742 414.965 467.926 414.86 467.992C414.768 468.07 414.63 468.13 414.447 468.169C414.355 468.182 414.282 468.156 414.23 468.09C414.177 468.025 414.132 467.946 414.092 467.854C414.053 467.762 414.013 467.677 413.974 467.598C413.935 467.532 413.889 467.493 413.836 467.48C413.666 467.454 413.567 467.414 413.541 467.362C413.528 467.322 413.488 467.237 413.423 467.106C413.383 467.053 413.344 467.02 413.305 467.007C413.265 467.007 413.226 467.007 413.187 467.007C413.147 467.007 413.121 467.001 413.108 466.988C413.082 466.975 413.068 466.935 413.068 466.87C413.095 466.646 413.114 466.423 413.127 466.2C413.154 465.977 413.187 465.774 413.226 465.59C413.265 465.445 413.397 465.144 413.62 464.684C413.856 464.225 414.145 463.66 414.486 462.991C414.827 462.335 415.208 461.6 415.628 460.786C416.061 459.985 416.494 459.165 416.927 458.325C417.373 457.498 417.807 456.678 418.227 455.864C418.66 455.05 419.047 454.309 419.388 453.64C419.217 453.272 418.988 452.8 418.699 452.222C418.41 451.631 418.095 450.982 417.754 450.273C417.413 449.551 417.045 448.79 416.652 447.989C416.271 447.189 415.897 446.395 415.529 445.607C415.162 444.82 414.807 444.058 414.466 443.323C414.125 442.588 413.823 441.932 413.561 441.355C413.311 440.764 413.114 440.278 412.97 439.898C412.826 439.504 412.753 439.261 412.753 439.169C412.767 439.012 412.799 438.907 412.852 438.854C412.904 438.789 412.977 438.756 413.068 438.756C413.147 438.756 413.232 438.775 413.324 438.815C413.429 438.854 413.534 438.894 413.639 438.933C413.797 438.999 413.948 439.064 414.092 439.13C414.237 439.182 414.342 439.156 414.407 439.051C414.447 438.946 414.558 438.894 414.742 438.894C414.926 438.88 415.077 438.907 415.195 438.972C415.234 439.012 415.267 439.025 415.293 439.012C415.332 438.999 415.365 438.972 415.392 438.933C415.431 438.894 415.47 438.854 415.51 438.815C415.562 438.762 415.621 438.723 415.687 438.697C415.831 438.67 415.962 438.697 416.081 438.775C416.199 438.854 416.31 439.025 416.415 439.287C416.481 439.484 416.612 439.825 416.809 440.311C417.019 440.797 417.262 441.361 417.537 442.004C417.826 442.647 418.141 443.343 418.482 444.091C418.824 444.826 419.165 445.555 419.506 446.276C419.847 446.985 420.169 447.655 420.471 448.285C420.786 448.915 421.062 449.44 421.298 449.86C421.652 449.203 422.033 448.508 422.44 447.773C422.86 447.025 423.28 446.283 423.7 445.548C424.133 444.8 424.559 444.071 424.979 443.363C425.399 442.654 425.793 441.998 426.161 441.394C426.541 440.79 426.876 440.265 427.165 439.819C427.453 439.36 427.69 439.012 427.873 438.775C427.978 438.644 428.031 438.559 428.031 438.52C428.031 438.48 428.083 438.441 428.188 438.401C428.267 438.375 428.333 438.349 428.385 438.323C428.451 438.296 428.549 438.296 428.681 438.323C428.799 438.349 428.891 438.362 428.956 438.362C429.022 438.362 429.074 438.401 429.114 438.48C429.14 438.52 429.179 438.533 429.232 438.52C429.284 438.506 429.343 438.487 429.409 438.46C429.488 438.421 429.567 438.388 429.645 438.362C429.724 438.323 429.803 438.31 429.882 438.323C429.973 438.336 430.065 438.355 430.157 438.382C430.249 438.395 430.328 438.428 430.393 438.48C430.472 438.533 430.518 438.598 430.531 438.677C430.544 438.756 430.518 438.854 430.452 438.972ZM440.296 440.862C440.283 441.243 440.244 441.624 440.178 442.004C440.126 442.372 440.047 442.726 439.942 443.067C439.837 443.395 439.706 443.691 439.548 443.953C439.404 444.216 439.24 444.426 439.056 444.583C438.898 444.715 438.774 444.78 438.682 444.78C438.59 444.78 438.511 444.754 438.446 444.701C438.393 444.649 438.347 444.59 438.308 444.524C438.268 444.459 438.216 444.419 438.15 444.406C438.098 444.393 438.026 444.4 437.934 444.426C437.855 444.439 437.77 444.439 437.678 444.426C437.599 444.413 437.52 444.367 437.442 444.288C437.376 444.196 437.33 444.039 437.304 443.815C437.277 443.566 437.284 443.245 437.323 442.851C437.376 442.444 437.402 442.05 437.402 441.67C437.402 441.328 437.363 441.046 437.284 440.823C437.218 440.587 437.094 440.469 436.91 440.469C436.818 440.469 436.654 440.541 436.418 440.685C436.195 440.816 435.945 441.105 435.67 441.551C435.394 441.998 435.118 442.647 434.843 443.5C434.567 444.34 434.344 445.463 434.173 446.867C434.173 448.678 434.187 450.135 434.213 451.238C434.239 452.34 434.252 453.2 434.252 453.817C434.252 454.342 434.239 454.716 434.213 454.939C434.187 455.162 434.121 455.306 434.016 455.372C433.95 455.411 433.819 455.457 433.622 455.51C433.438 455.575 433.235 455.635 433.012 455.687C432.802 455.74 432.598 455.785 432.402 455.825C432.205 455.864 432.08 455.877 432.027 455.864C431.988 455.851 431.916 455.805 431.811 455.726C431.706 455.661 431.594 455.575 431.476 455.47C431.371 455.365 431.273 455.254 431.181 455.136C431.089 455.031 431.037 454.939 431.023 454.86C430.997 454.729 430.984 454.434 430.984 453.974C430.997 453.502 431.004 452.937 431.004 452.281C431.017 451.625 431.03 450.91 431.043 450.135C431.056 449.348 431.063 448.567 431.063 447.792C431.063 447.294 431.076 446.742 431.102 446.139C431.142 445.522 431.181 444.898 431.22 444.268C431.273 443.638 431.325 443.021 431.378 442.418C431.43 441.814 431.476 441.276 431.516 440.803C431.568 440.318 431.607 439.917 431.634 439.602C431.673 439.274 431.699 439.077 431.712 439.012C431.726 438.907 431.772 438.867 431.85 438.894C431.942 438.92 432.034 438.966 432.126 439.031C432.231 439.097 432.323 439.156 432.402 439.209C432.48 439.261 432.533 439.261 432.559 439.209C432.585 439.09 432.684 439.077 432.854 439.169C433.025 439.248 433.182 439.34 433.327 439.445C433.379 439.51 433.438 439.57 433.504 439.622C433.583 439.661 433.655 439.72 433.721 439.799C433.786 439.865 433.839 439.957 433.878 440.075C433.931 440.193 433.957 440.35 433.957 440.547C433.957 440.731 433.97 441.007 433.996 441.374C434.022 441.742 434.055 442.175 434.095 442.674C434.239 442.201 434.41 441.702 434.607 441.177C434.817 440.652 435.066 440.173 435.355 439.74C435.643 439.294 435.985 438.926 436.378 438.638C436.772 438.349 437.245 438.205 437.796 438.205C438.098 438.205 438.4 438.264 438.702 438.382C439.003 438.5 439.272 438.677 439.509 438.913C439.758 439.136 439.955 439.412 440.099 439.74C440.244 440.068 440.309 440.442 440.296 440.862Z" fill="white"/>
<path d="M455.452 241.194C451.258 245.655 447.483 237.146 441.312 237.146C435.141 237.146 435.141 241.966 428.964 241.966C422.787 241.966 422.793 237.146 416.616 237.146C410.439 237.146 410.445 241.966 404.268 241.966C398.097 241.966 398.097 237.146 391.92 237.146C385.749 237.146 385.749 241.966 379.572 241.966C373.401 241.966 373.401 237.146 367.224 237.146C361.053 237.146 361.053 241.966 354.876 241.966C348.705 241.966 348.705 237.146 342.528 237.146C336.357 237.146 336.357 241.966 330.18 241.966C324.009 241.966 324.009 237.146 317.832 237.146C311.661 237.146 311.661 241.966 305.484 241.966C299.307 241.966 299.307 237.146 293.136 237.146C286.959 237.146 286.959 241.966 280.788 241.966C274.617 241.966 274.611 237.146 268.44 237.146C262.263 237.146 262.263 241.966 256.092 241.966C249.915 241.966 249.915 237.146 243.744 237.146C237.567 237.146 233.798 245.655 229.598 241.194C225.068 236.385 233.843 232.994 233.843 226.437C233.843 219.88 228.949 219.88 228.949 213.318C228.949 206.756 233.843 206.756 233.843 200.199C233.843 193.642 228.949 193.642 228.949 187.08C228.949 180.518 233.843 180.518 233.843 173.961C233.843 167.404 228.949 167.404 228.949 160.842C228.949 154.279 233.843 154.279 233.843 147.723C233.843 141.166 228.949 141.16 228.949 134.604C228.949 128.047 233.843 128.041 233.843 121.484C233.843 114.928 228.949 114.928 228.949 108.365C228.949 101.803 233.843 101.809 233.843 95.2462C233.843 88.6839 228.949 88.6894 228.949 82.1271C228.949 75.5648 233.843 75.5648 233.843 69.008C233.843 62.4457 228.949 62.4457 228.949 55.8889C228.949 49.3266 233.843 49.3266 233.843 42.7698C233.843 36.2075 228.949 36.2075 228.949 29.6507C228.949 23.0884 233.843 23.0884 233.843 16.5261C233.843 9.96381 225.074 6.57789 229.598 1.76369C233.793 -2.69757 237.567 5.81137 243.738 5.81137C249.91 5.81137 249.91 0.991661 256.086 0.991661C262.263 0.991661 262.258 5.81137 268.434 5.81137C274.611 5.81137 274.606 0.991661 280.782 0.991661C286.959 0.991661 286.954 5.81137 293.13 5.81137C299.307 5.81137 299.302 0.991661 305.478 0.991661C311.655 0.991661 311.65 5.81137 317.826 5.81137C324.003 5.81137 323.998 0.991661 330.174 0.991661C336.351 0.991661 336.346 5.81137 342.522 5.81137C348.699 5.81137 348.694 0.991661 354.87 0.991661C361.047 0.991661 361.042 5.81137 367.218 5.81137C373.395 5.81137 373.39 0.991661 379.566 0.991661C385.743 0.991661 385.743 5.81137 391.914 5.81137C398.086 5.81137 398.091 0.991661 404.262 0.991661C410.434 0.991661 410.439 5.81137 416.61 5.81137C422.782 5.81137 422.787 0.991661 428.958 0.991661C435.13 0.991661 435.135 5.81137 441.306 5.81137C447.478 5.81137 451.252 -2.69757 455.452 1.76369C459.982 6.57238 451.207 9.96381 451.207 16.5206C451.207 23.0774 456.102 23.0774 456.102 29.6397C456.102 36.202 451.207 36.202 451.207 42.7588C451.207 49.3156 456.102 49.3156 456.102 55.8779C456.102 62.4402 451.207 62.4402 451.207 68.997C451.207 75.5538 456.102 75.5538 456.102 82.1161C456.102 88.6784 451.207 88.6784 451.207 95.2352C451.207 101.798 456.102 101.798 456.102 108.354C456.102 114.917 451.207 114.917 451.207 121.473C451.207 128.03 456.102 128.03 456.102 134.593C456.102 141.155 451.207 141.149 451.207 147.712C451.207 154.268 456.102 154.268 456.102 160.831C456.102 167.393 451.207 167.393 451.207 173.95C451.207 180.512 456.102 180.512 456.102 187.069C456.102 193.631 451.207 193.631 451.207 200.188C451.207 206.75 456.102 206.75 456.102 213.307C456.102 219.869 449.555 220.724 451.291 227.06C453.386 234.698 459.977 236.38 455.452 241.194Z" fill="#FF5A00"/>
<path d="M434.603 222.439H428.533V220.129H432.05V216.958H434.603V222.439Z" fill="white"/>
<path d="M418.425 222.439H408.317V220.129H418.425V222.439ZM398.209 222.439H388.101V220.129H398.209V222.439ZM377.993 222.439H367.885V220.129H377.993V222.439ZM357.771 222.439H347.663V220.129H357.771V222.439ZM337.555 222.439H327.447V220.129H337.555V222.439ZM317.339 222.439H307.231V220.129H317.339V222.439ZM297.118 222.439H287.01V220.129H297.118V222.439ZM276.902 222.439H266.794V220.129H276.902V222.439Z" fill="white"/>
<path d="M256.68 222.439H250.615V216.958H253.169V220.129H256.68V222.439Z" fill="white"/>
<path d="M253.169 208.648H250.615V200.343H253.169V208.648ZM253.169 192.038H250.615V183.733H253.169V192.038ZM253.169 175.422H250.615V167.117H253.169V175.422ZM253.169 158.807H250.615V150.502H253.169V158.807ZM253.169 142.192H250.615V133.887H253.169V142.192ZM253.169 125.576H250.615V117.272H253.169V125.576ZM253.169 108.967H250.615V100.662H253.169V108.967ZM253.169 92.3513H250.615V84.0464H253.169V92.3513ZM253.169 75.736H250.615V67.4311H253.169V75.736ZM253.169 59.1207H250.615V50.8158H253.169V59.1207ZM253.169 42.5054H250.615V34.2005H253.169V42.5054Z" fill="white"/>
<path d="M253.169 25.8898H250.615V20.4083H256.68V22.7189H253.169V25.8898Z" fill="white"/>
<path d="M418.425 22.7189H408.317V20.4083H418.425V22.7189ZM398.209 22.7189H388.101V20.4083H398.209V22.7189ZM377.993 22.7189H367.885V20.4083H377.993V22.7189ZM357.771 22.7189H347.663V20.4083H357.771V22.7189ZM337.555 22.7189H327.447V20.4083H337.555V22.7189ZM317.334 22.7189H307.226V20.4083H317.334V22.7189ZM297.118 22.7189H287.01V20.4083H297.118V22.7189ZM276.902 22.7189H266.794V20.4083H276.902V22.7189Z" fill="white"/>
<path d="M434.603 25.8898H432.05V22.7189H428.533V20.4083H434.603V25.8898Z" fill="white"/>
<path d="M434.604 208.648H432.05V200.343H434.604V208.648ZM434.604 192.038H432.05V183.733H434.604V192.038ZM434.604 175.422H432.05V167.117H434.604V175.422ZM434.604 158.807H432.05V150.502H434.604V158.807ZM434.604 142.192H432.05V133.887H434.604V142.192ZM434.604 125.576H432.05V117.272H434.604V125.576ZM434.604 108.961H432.05V100.656H434.604V108.961ZM434.604 92.3513H432.05V84.0464H434.604V92.3513ZM434.604 75.736H432.05V67.4311H434.604V75.736ZM434.604 59.1207H432.05V50.8158H434.604V59.1207ZM434.604 42.5054H432.05V34.2005H434.604V42.5054Z" fill="white"/>
<path d="M361.532 105.536C361.532 109.755 361.414 113.979 361.224 118.275C361.033 122.493 360.764 126.718 360.417 130.936C360.378 131.692 360.3 132.745 360.266 134.063C360.227 135.342 360.115 136.738 359.958 138.249C359.807 139.721 359.577 141.226 359.348 142.732C359.118 144.237 358.659 145.671 358.082 146.917C357.545 148.125 356.856 149.14 355.937 149.895C355.097 150.722 354.061 151.103 352.801 151.103C351.541 151.103 350.696 150.877 349.817 150.425C348.977 149.972 348.249 149.371 347.672 148.654C347.095 147.899 346.636 147.072 346.333 146.129C346.025 145.147 345.874 144.171 345.874 143.151C345.874 141.491 345.913 139.798 346.025 138.138C346.143 136.407 346.294 134.708 346.485 133.015L338.678 133.771C338.527 135.089 338.331 136.71 338.141 138.557C337.989 140.405 337.603 142.175 337.032 143.906C336.494 145.566 335.693 147.033 334.585 148.241C333.476 149.449 331.941 150.088 329.993 150.088C328.044 150.088 327.775 149.824 327.008 149.261C326.201 148.77 325.591 148.092 325.132 147.265C324.673 146.399 324.325 145.456 324.096 144.436C323.905 143.416 323.788 142.44 323.788 141.535C323.788 138.48 323.905 135.469 324.169 132.453C324.437 129.398 324.628 126.348 324.706 123.293C324.824 120.089 324.824 116.885 324.785 113.681C324.785 110.439 324.824 107.163 324.936 103.921C324.975 102.867 325.014 101.621 325.014 100.187C325.053 98.7534 325.244 97.4354 325.552 96.2277C325.933 94.9483 326.509 93.8895 327.277 93.0238C328.117 92.158 329.343 91.7444 330.989 91.7444C333.246 91.7444 334.971 92.3455 336.119 93.5146C337.267 94.645 338.107 96.0402 338.566 97.7718C339.025 99.4317 339.294 101.24 339.294 103.198V108.321C339.294 109.865 339.255 112.352 339.143 114.349C339.025 116.273 338.953 118.231 338.835 120.227L347.291 119.019C347.33 116.532 347.409 114.084 347.442 111.635C347.481 109.187 347.593 106.772 347.75 104.323C347.789 103.154 347.868 101.913 347.901 100.59C347.941 99.2717 348.17 98.0641 348.512 96.9336C348.893 95.8031 349.469 94.8987 350.309 94.1818C351.189 93.4263 352.527 93.0513 354.252 93.0513C355.977 93.0513 356.895 93.4649 357.813 94.259C358.771 95.0862 359.499 96.0678 360.031 97.2369C360.608 98.406 360.989 99.6467 361.218 100.97C361.409 102.288 361.526 103.496 361.526 104.549V105.531L361.532 105.536Z" fill="white"/>
<path d="M342.657 193.03C302.561 193.03 269.941 160.908 269.941 121.424C269.941 81.9396 302.561 49.8174 342.657 49.8174C382.753 49.8174 415.373 81.9396 415.373 121.424C415.373 160.908 382.753 193.03 342.657 193.03ZM342.657 57.6591C306.951 57.6591 277.904 86.263 277.904 121.424C277.904 156.584 306.951 185.188 342.657 185.188C378.362 185.188 407.409 156.584 407.409 121.424C407.409 86.263 378.362 57.6591 342.657 57.6591Z" fill="white"/>
<path d="M342.657 182.531C308.441 182.531 280.603 155.118 280.603 121.424C280.603 87.73 308.441 60.3172 342.657 60.3172C376.873 60.3172 404.71 87.73 404.71 121.424C404.71 155.118 376.873 182.531 342.657 182.531ZM342.657 65.6718C311.437 65.6718 286.041 90.6803 286.041 121.424C286.041 152.167 311.437 177.176 342.657 177.176C373.877 177.176 399.273 152.167 399.273 121.424C399.273 90.6803 373.877 65.6718 342.657 65.6718Z" fill="white"/>
<path d="M347.583 77.0071C347.583 77.2766 347.571 77.6626 347.547 78.165C347.522 78.6552 347.473 79.2005 347.4 79.8009C347.338 80.3891 347.246 80.9956 347.124 81.6205C347.001 82.2332 346.842 82.7908 346.646 83.2932C346.45 83.7956 346.211 84.2122 345.929 84.543C345.647 84.8616 345.31 85.0209 344.918 85.0209C344.551 85.0209 344.214 84.9168 343.907 84.7085C343.601 84.4879 343.325 84.2244 343.08 83.9181C342.835 83.5995 342.621 83.2625 342.437 82.9072C342.253 82.5518 342.1 82.2271 341.977 81.933C341.72 81.3081 341.463 80.6954 341.205 80.095C340.948 79.4823 340.703 78.8635 340.47 78.2385V78.7532C340.47 79.2801 340.464 79.807 340.452 80.3339C340.452 80.8486 340.415 81.3632 340.342 81.8779C340.317 82.0862 340.286 82.3313 340.25 82.6131C340.225 82.8827 340.182 83.1523 340.121 83.4218C340.06 83.6914 339.968 83.9426 339.845 84.1754C339.735 84.4083 339.582 84.5798 339.386 84.6901C339.275 84.7514 339.171 84.7881 339.073 84.8004C338.988 84.8126 338.889 84.831 338.779 84.8555H338.724C338.442 84.8555 338.203 84.7636 338.007 84.5798C337.811 84.3837 337.646 84.1387 337.511 83.8446C337.376 83.5382 337.266 83.2013 337.18 82.8337C337.107 82.4538 337.045 82.0862 336.996 81.7308C336.96 81.3632 336.935 81.0262 336.923 80.7199C336.911 80.4136 336.904 80.1685 336.904 79.9847C336.904 79.7029 336.917 79.2924 336.941 78.7532C336.966 78.2018 337.015 77.5952 337.088 76.9335C337.174 76.2718 337.278 75.5918 337.401 74.8933C337.535 74.1948 337.707 73.5638 337.915 73.0001C338.124 72.4242 338.375 71.9585 338.669 71.6032C338.963 71.2356 339.306 71.0518 339.698 71.0518C340.078 71.0518 340.415 71.1988 340.709 71.4929C341.015 71.787 341.285 72.1362 341.518 72.5406C341.751 72.945 341.947 73.3677 342.106 73.8089C342.265 74.25 342.4 74.6176 342.51 74.9117C342.719 75.4876 342.921 76.0635 343.117 76.6394C343.313 77.2031 343.503 77.779 343.687 78.3672C343.699 78.3917 343.724 78.4591 343.76 78.5694C343.797 78.6797 343.84 78.8022 343.889 78.937C343.938 79.084 343.999 79.2495 344.073 79.4333C344.073 79.274 344.067 79.1637 344.054 79.1024C344.054 79.0289 344.054 78.9676 344.054 78.9186C344.054 78.8574 344.054 78.7838 344.054 78.6981C344.054 78.6123 344.054 78.4775 344.054 78.2937C344.042 77.8893 344.03 77.4849 344.018 77.0806C344.018 76.6762 344.018 76.278 344.018 75.8858C344.018 75.7143 344.018 75.4753 344.018 75.169C344.03 74.8627 344.048 74.5379 344.073 74.1948C344.11 73.8395 344.159 73.4841 344.22 73.1288C344.281 72.7734 344.367 72.4548 344.477 72.173C344.6 71.8789 344.747 71.64 344.918 71.4562C345.102 71.2723 345.323 71.1804 345.58 71.1804C345.886 71.1804 346.15 71.2969 346.37 71.5297C346.591 71.7625 346.775 72.0627 346.922 72.4303C347.069 72.7857 347.185 73.19 347.271 73.6434C347.357 74.0846 347.424 74.5196 347.473 74.9484C347.522 75.3773 347.553 75.7756 347.565 76.1432C347.577 76.5108 347.583 76.7987 347.583 77.0071Z" fill="white"/>
<path d="M394.185 125.599C394.185 125.832 394.124 126.058 394.001 126.279C393.879 126.487 393.591 126.732 393.137 127.014C392.684 127.296 392.182 127.566 391.63 127.823C391.079 128.068 390.546 128.282 390.031 128.466C389.516 128.638 389.137 128.724 388.891 128.724C388.72 128.724 388.518 128.681 388.285 128.595C388.052 128.521 387.819 128.423 387.586 128.301C387.354 128.178 387.139 128.037 386.943 127.878C386.759 127.719 386.625 127.566 386.539 127.419C386.49 127.333 386.441 127.161 386.392 126.904C386.355 126.647 386.318 126.346 386.281 126.003C386.257 125.66 386.232 125.299 386.208 124.919C386.183 124.527 386.159 124.159 386.134 123.816C386.122 123.461 386.11 123.148 386.098 122.879C386.098 122.609 386.098 122.413 386.098 122.29C386.098 121.837 386.11 121.316 386.134 120.728C386.171 120.14 386.232 119.552 386.318 118.963C386.404 118.363 386.527 117.793 386.686 117.254C386.857 116.703 387.084 116.237 387.366 115.857C387.452 115.747 387.623 115.63 387.881 115.508C388.138 115.385 388.438 115.269 388.781 115.159C389.137 115.048 389.516 114.944 389.921 114.846C390.325 114.748 390.711 114.669 391.079 114.607C391.459 114.534 391.802 114.479 392.108 114.442C392.414 114.393 392.647 114.368 392.807 114.368C392.99 114.368 393.162 114.411 393.321 114.497C393.493 114.571 393.634 114.675 393.744 114.81C393.866 114.944 393.958 115.097 394.02 115.269C394.093 115.428 394.13 115.6 394.13 115.784C394.13 115.943 394.105 116.078 394.056 116.188C394.02 116.298 393.958 116.421 393.873 116.556C393.75 116.715 393.493 116.905 393.101 117.125C392.708 117.346 392.28 117.567 391.814 117.787C391.361 117.995 390.919 118.185 390.491 118.357C390.074 118.528 389.78 118.651 389.608 118.725C389.559 119.006 389.504 119.294 389.443 119.588C389.394 119.87 389.357 120.158 389.333 120.452C389.712 120.256 390.141 120.072 390.619 119.901C391.097 119.729 391.551 119.644 391.979 119.644C392.849 119.644 393.284 120.072 393.284 120.93C393.284 121.139 393.242 121.322 393.156 121.482C393.082 121.641 392.978 121.782 392.843 121.904C392.721 122.027 392.574 122.137 392.402 122.235C392.243 122.321 392.084 122.407 391.924 122.493C391.532 122.701 391.122 122.885 390.693 123.044C390.264 123.191 389.835 123.338 389.406 123.485C389.382 123.583 389.357 123.693 389.333 123.816C389.308 123.926 389.296 124.036 389.296 124.147C389.296 124.318 389.308 124.49 389.333 124.661C389.357 124.833 389.382 125.005 389.406 125.176C389.553 125.127 389.786 125.047 390.105 124.937C390.435 124.827 390.779 124.717 391.134 124.606C391.489 124.496 391.832 124.404 392.163 124.331C392.494 124.245 392.739 124.202 392.898 124.202C393.082 124.202 393.254 124.245 393.413 124.331C393.572 124.404 393.707 124.508 393.817 124.643C393.928 124.766 394.013 124.913 394.075 125.084C394.148 125.256 394.185 125.427 394.185 125.599Z" fill="white"/>
<path d="M345.696 160.031C345.696 160.313 345.604 160.558 345.421 160.767C345.249 160.975 345.041 161.146 344.796 161.281C344.575 161.416 344.348 161.563 344.116 161.722C343.883 161.869 343.668 162.041 343.472 162.237C343.276 162.421 343.117 162.629 342.994 162.862C342.872 163.095 342.81 163.358 342.81 163.652C342.81 163.91 342.872 164.142 342.994 164.351C343.117 164.559 343.264 164.767 343.435 164.976C343.619 165.172 343.815 165.38 344.024 165.601C344.244 165.809 344.44 166.048 344.612 166.317C344.796 166.575 344.949 166.869 345.071 167.2C345.194 167.531 345.255 167.917 345.255 168.358C345.255 168.664 345.188 169.013 345.053 169.405C344.93 169.785 344.759 170.171 344.538 170.563C344.318 170.955 344.054 171.335 343.748 171.703C343.454 172.07 343.135 172.401 342.792 172.695C342.461 172.977 342.112 173.204 341.744 173.376C341.377 173.559 341.021 173.651 340.678 173.651C340.298 173.651 339.962 173.547 339.667 173.339C339.373 173.13 339.226 172.818 339.226 172.401C339.226 172.12 339.294 171.862 339.428 171.629C339.563 171.384 339.729 171.151 339.925 170.931C340.121 170.71 340.335 170.496 340.568 170.288C340.813 170.079 341.034 169.871 341.23 169.663C341.426 169.454 341.591 169.24 341.726 169.019C341.861 168.787 341.928 168.541 341.928 168.284C341.928 167.929 341.8 167.567 341.542 167.2C341.297 166.82 341.021 166.434 340.715 166.042C340.409 165.637 340.127 165.227 339.87 164.81C339.625 164.394 339.502 163.971 339.502 163.542C339.502 163.015 339.643 162.464 339.925 161.888C340.207 161.3 340.568 160.767 341.009 160.289C341.45 159.798 341.947 159.394 342.498 159.075C343.049 158.757 343.595 158.598 344.134 158.598C344.563 158.598 344.93 158.726 345.237 158.984C345.543 159.241 345.696 159.59 345.696 160.031Z" fill="white"/>
<path d="M301.987 117.502C301.987 118.238 301.938 118.967 301.84 119.69C301.742 120.4 301.625 121.105 301.491 121.803C301.454 121.987 301.399 122.287 301.325 122.704C301.252 123.108 301.16 123.562 301.049 124.064C300.951 124.567 300.829 125.087 300.682 125.627C300.535 126.166 300.369 126.656 300.186 127.097C300.014 127.538 299.818 127.906 299.597 128.2C299.389 128.482 299.162 128.623 298.917 128.623C298.672 128.623 298.433 128.5 298.2 128.255C297.98 128.01 297.772 127.704 297.576 127.336C297.392 126.956 297.22 126.533 297.061 126.068C296.902 125.602 296.761 125.155 296.638 124.726C296.528 124.285 296.43 123.887 296.344 123.531C296.271 123.164 296.215 122.888 296.179 122.704C296.13 122.863 296.05 123.121 295.94 123.476C295.842 123.819 295.713 124.211 295.554 124.652C295.394 125.081 295.217 125.522 295.021 125.976C294.825 126.429 294.616 126.846 294.396 127.226C294.187 127.606 293.967 127.918 293.734 128.163C293.501 128.408 293.268 128.531 293.036 128.531C292.729 128.531 292.46 128.396 292.227 128.126C291.994 127.857 291.798 127.514 291.639 127.097C291.479 126.668 291.345 126.196 291.234 125.682C291.124 125.155 291.038 124.64 290.977 124.138C290.916 123.623 290.867 123.145 290.83 122.704C290.793 122.263 290.769 121.914 290.756 121.656C290.72 121.068 290.683 120.492 290.646 119.929C290.622 119.365 290.609 118.789 290.609 118.201C290.609 117.993 290.615 117.711 290.628 117.355C290.64 116.988 290.683 116.632 290.756 116.289C290.842 115.934 290.965 115.628 291.124 115.37C291.296 115.101 291.541 114.954 291.859 114.929C292.129 114.917 292.362 115.027 292.558 115.26C292.754 115.493 292.919 115.805 293.054 116.197C293.189 116.577 293.293 117.006 293.366 117.484C293.452 117.95 293.513 118.403 293.55 118.844C293.599 119.285 293.63 119.69 293.642 120.057C293.654 120.425 293.654 120.695 293.642 120.866L293.624 121.344C293.661 121.185 293.722 120.933 293.808 120.59C293.906 120.247 294.022 119.861 294.157 119.432C294.292 118.991 294.432 118.544 294.58 118.091C294.739 117.625 294.904 117.202 295.076 116.822C295.247 116.443 295.419 116.13 295.59 115.885C295.762 115.628 295.927 115.493 296.087 115.481C296.295 115.468 296.491 115.591 296.675 115.848C296.871 116.106 297.043 116.443 297.19 116.859C297.349 117.263 297.49 117.717 297.612 118.219C297.735 118.722 297.839 119.212 297.925 119.69C298.023 120.155 298.096 120.578 298.145 120.958C298.194 121.338 298.231 121.607 298.256 121.767C298.268 121.571 298.299 121.264 298.348 120.848C298.397 120.419 298.464 119.947 298.55 119.432C298.635 118.905 298.74 118.372 298.862 117.833C298.997 117.282 299.15 116.779 299.322 116.326C299.493 115.873 299.689 115.505 299.91 115.223C300.13 114.929 300.376 114.782 300.645 114.782C300.951 114.782 301.197 114.886 301.38 115.095C301.564 115.291 301.699 115.536 301.785 115.83C301.87 116.112 301.926 116.412 301.95 116.73C301.975 117.037 301.987 117.294 301.987 117.502Z" fill="white"/>
<path d="M306.845 158.355C306.498 158.355 306.15 158.222 305.882 157.963C305.35 157.439 305.35 156.59 305.882 156.072L312.142 149.906C312.674 149.383 313.531 149.383 314.063 149.906C314.595 150.43 314.595 151.28 314.063 151.798L307.802 157.963C307.539 158.222 307.186 158.355 306.839 158.355H306.845Z" fill="white"/>
<path d="M372.633 93.6139C372.286 93.6139 371.939 93.4815 371.67 93.2223C371.138 92.6985 371.138 91.8492 371.67 91.3308L377.931 85.1656C378.463 84.6417 379.32 84.6417 379.852 85.1656C380.384 85.6895 380.384 86.5387 379.852 87.0571L373.591 93.2223C373.328 93.4815 372.975 93.6139 372.628 93.6139H372.633Z" fill="white"/>
</svg>
